<?xml version="1.0" encoding="UTF-8" standalone="no"?>
<!-- Created with Inkscape (http://www.inkscape.org/) -->

<svg
   xmlns:dc="http://purl.org/dc/elements/1.1/"
   xmlns:cc="http://creativecommons.org/ns#"
   xmlns:rdf="http://www.w3.org/1999/02/22-rdf-syntax-ns#"
   xmlns:svg="http://www.w3.org/2000/svg"
   xmlns="http://www.w3.org/2000/svg"
   xmlns:sodipodi="http://sodipodi.sourceforge.net/DTD/sodipodi-0.dtd"
   xmlns:inkscape="http://www.inkscape.org/namespaces/inkscape"
   width="154.44003"
   height="91.662498"
   viewBox="0 0 40.862258 24.25237"
   version="1.1"
   id="svg5458"
   inkscape:version="0.92.3 (2405546, 2018-03-11)"
   sodipodi:docname="Trim.svg">
  <defs
     id="defs5452" />
  <sodipodi:namedview
     id="base"
     pagecolor="#ffffff"
     bordercolor="#666666"
     borderopacity="1.0"
     inkscape:pageopacity="0.0"
     inkscape:pageshadow="2"
     inkscape:zoom="0.35"
     inkscape:cx="-272.65408"
     inkscape:cy="-119.09648"
     inkscape:document-units="mm"
     inkscape:current-layer="layer1"
     showgrid="false"
     units="px"
     fit-margin-top="1"
     fit-margin-left="1"
     fit-margin-right="1"
     fit-margin-bottom="1"
     inkscape:window-width="1680"
     inkscape:window-height="1028"
     inkscape:window-x="1280"
     inkscape:window-y="0"
     inkscape:window-maximized="1" />
  <metadata
     id="metadata5455">
    <rdf:RDF>
      <cc:Work
         rdf:about="">
        <dc:format>image/svg+xml</dc:format>
        <dc:type
           rdf:resource="http://purl.org/dc/dcmitype/StillImage" />
        <dc:title></dc:title>
      </cc:Work>
    </rdf:RDF>
  </metadata>
  <g
     inkscape:label="Layer 1"
     inkscape:groupmode="layer"
     id="layer1"
     transform="translate(-41.145678,-93.07001)">
    <g
       style="display:inline;fill:#00aa88;fill-opacity:1"
       transform="matrix(0.28222223,0,0,0.28222223,27.923086,-95.570359)"
       id="g6296">
      <rect
         transform="rotate(90)"
         y="-140.57593"
         x="687.36249"
         height="77.252121"
         width="39.971428"
         id="rect6292"
         style="color:#000000;display:inline;overflow:visible;visibility:visible;fill:#00aa88;fill-opacity:1;fill-rule:nonzero;stroke:#0b280b;stroke-width:2.49583793;stroke-miterlimit:4;stroke-dasharray:none;stroke-dashoffset:0;marker:none;enable-background:accumulate" />
      <rect
         transform="rotate(90)"
         style="color:#000000;display:inline;overflow:visible;visibility:visible;fill:#00aa88;fill-opacity:1;fill-rule:nonzero;stroke:#0b280b;stroke-width:2.49583793;stroke-miterlimit:4;stroke-dasharray:none;stroke-dashoffset:0;marker:none;enable-background:accumulate"
         id="rect6294"
         width="47.343639"
         height="22.626621"
         x="683.67639"
         y="-71.663742" />
    </g>
    <g
       style="display:inline;fill:#00aa88;fill-opacity:1"
       transform="matrix(0.28222223,0,0,0.28222223,27.923086,-95.570359)"
       id="g6302">
      <rect
         style="color:#000000;display:inline;overflow:visible;visibility:visible;fill:#00aa88;fill-opacity:1;fill-rule:nonzero;stroke:#0b280b;stroke-width:2.49583793;stroke-miterlimit:4;stroke-dasharray:none;stroke-dashoffset:0;marker:none;enable-background:accumulate"
         id="rect6298"
         width="39.971428"
         height="77.252121"
         x="687.36249"
         y="97.915009"
         transform="matrix(0,1,1,0,0,0)" />
      <rect
         y="166.82719"
         x="683.67639"
         height="22.626621"
         width="47.343639"
         id="rect6300"
         style="color:#000000;display:inline;overflow:visible;visibility:visible;fill:#00aa88;fill-opacity:1;fill-rule:nonzero;stroke:#0b280b;stroke-width:2.49583793;stroke-miterlimit:4;stroke-dasharray:none;stroke-dashoffset:0;marker:none;enable-background:accumulate"
         transform="matrix(0,1,1,0,0,0)" />
    </g>
    <path
       sodipodi:type="star"
       style="display:inline;opacity:1;fill:#00ff00;fill-opacity:1;stroke:#000000;stroke-width:7.47155905;stroke-linecap:round;stroke-linejoin:round;stroke-miterlimit:4;stroke-dasharray:none;stroke-dashoffset:0;stroke-opacity:1"
       id="path6304"
       sodipodi:sides="3"
       sodipodi:cx="33.57143"
       sodipodi:cy="365.2193"
       sodipodi:r1="27.19919"
       sodipodi:r2="13.599595"
       sodipodi:arg1="0.52359878"
       sodipodi:arg2="1.5707963"
       inkscape:flatsided="true"
       inkscape:rounded="0"
       inkscape:randomized="0"
       d="m 57.12662,378.81889 -47.110379,0 23.555189,-40.79878 z"
       transform="matrix(0,0.04611835,-0.0856518,0,108.89758,102.51076)"
       inkscape:transform-center-x="-2.063677" />
    <path
       inkscape:transform-center-x="-2.0636753"
       transform="matrix(0,0.04611835,-0.0856518,0,75.654606,102.51076)"
       d="m 57.12662,378.81889 -47.110379,0 23.555189,-40.79878 z"
       inkscape:randomized="0"
       inkscape:rounded="0"
       inkscape:flatsided="true"
       sodipodi:arg2="1.5707963"
       sodipodi:arg1="0.52359878"
       sodipodi:r2="13.599595"
       sodipodi:r1="27.19919"
       sodipodi:cy="365.2193"
       sodipodi:cx="33.57143"
       sodipodi:sides="3"
       id="path6306"
       style="display:inline;opacity:1;fill:#ff0000;fill-opacity:1;stroke:#000000;stroke-width:7.47155905;stroke-linecap:round;stroke-linejoin:round;stroke-miterlimit:4;stroke-dasharray:none;stroke-dashoffset:0;stroke-opacity:1"
       sodipodi:type="star" />
    <path
       inkscape:connector-curvature="0"
       id="path6308"
       d="m 51.230516,93.706879 v 20.704301 h 2.34832 16.39246 1.96353 V 93.706879 h -1.96353 -16.39246 z"
       style="color:#000000;display:inline;overflow:visible;visibility:visible;fill:#93ac93;fill-opacity:1;fill-rule:nonzero;stroke:#0b280b;stroke-width:0.74457121;stroke-miterlimit:4;stroke-dasharray:none;stroke-dashoffset:0;marker:none;enable-background:accumulate" />
    <g
       id="g6320"
       transform="matrix(0.28222223,0,0,0.28222223,-35.680674,-159.56123)"
       style="display:inline">
      <g
         id="g6318"
         transform="matrix(0.81047296,0,0,0.81047296,-20.78011,573.30048)">
        <g
           transform="translate(161.62441,142.43151)"
           id="g6316">
          <rect
             y="336.09238"
             x="278.09991"
             height="22.461578"
             width="23.576544"
             id="rect6310"
             style="fill:#eeffaa;fill-opacity:1;stroke:#22280b;stroke-width:2;stroke-miterlimit:4;stroke-dasharray:none;stroke-dashoffset:0;stroke-opacity:1"
             ry="5.0507627" />
          <text
             xml:space="preserve"
             style="font-style:normal;font-weight:normal;line-height:0%;font-family:sans-serif;letter-spacing:0px;word-spacing:0px;fill:#000000;fill-opacity:1;stroke:none"
             x="225.63997"
             y="442.64838"
             id="text6314"
             transform="scale(1.2476837,0.80148515)"><tspan
               style="font-style:normal;font-variant:normal;font-weight:normal;font-stretch:normal;font-size:20.95247459px;line-height:1.25;font-family:sans-serif;-inkscape-font-specification:sans-serif"
               sodipodi:role="line"
               id="tspan6312"
               x="225.63997"
               y="442.64838">n</tspan></text>
        </g>
      </g>
    </g>
    <rect
       ry="0.87768477"
       y="100.4306"
       x="59.624222"
       height="6.7023196"
       width="4.6416478"
       id="rect6322"
       style="display:inline;opacity:1;fill:#e6e6e6;fill-opacity:1;stroke:#000000;stroke-width:0.70555556;stroke-linecap:round;stroke-linejoin:round;stroke-miterlimit:4;stroke-dasharray:none;stroke-dashoffset:0;stroke-opacity:1" />
    <rect
       ry="0.87768477"
       y="100.4306"
       x="65.660187"
       height="6.7023196"
       width="4.6416478"
       id="rect6324"
       style="display:inline;opacity:1;fill:#e6e6e6;fill-opacity:1;stroke:#000000;stroke-width:0.70555556;stroke-linecap:round;stroke-linejoin:round;stroke-miterlimit:4;stroke-dasharray:none;stroke-dashoffset:0;stroke-opacity:1" />
    <rect
       style="display:inline;opacity:1;fill:#b3b3b3;fill-opacity:1;stroke:#666666;stroke-width:0.70555556;stroke-linecap:round;stroke-linejoin:round;stroke-miterlimit:4;stroke-dasharray:none;stroke-dashoffset:0;stroke-opacity:1"
       id="rect6353"
       width="4.6416478"
       height="6.7023196"
       x="53.111008"
       y="100.4306"
       ry="0.87768477" />
    <g
       transform="matrix(-0.1998854,0,0,0.1998854,173.27304,-45.410733)"
       id="g6334"
       style="display:inline">
      <path
         inkscape:connector-curvature="0"
         id="path6326"
         d="m 577.75573,715.04298 a 2.5393719,2.5071709 0 0 0 -2.6482,2.39333 l -2.551,42.82524 a 2.5393719,2.5071709 0 1 0 5.0683,0.29379 l 2.553,-42.8233 a 2.5393719,2.5071709 0 0 0 -2.4221,-2.68906 z"
         style="color:#000000;font-style:normal;font-variant:normal;font-weight:normal;font-stretch:normal;font-size:medium;line-height:normal;font-family:sans-serif;text-indent:0;text-align:start;text-decoration:none;text-decoration-line:none;text-decoration-style:solid;text-decoration-color:#000000;letter-spacing:normal;word-spacing:normal;text-transform:none;writing-mode:lr-tb;direction:ltr;baseline-shift:baseline;text-anchor:start;white-space:normal;clip-rule:nonzero;display:inline;overflow:visible;visibility:visible;opacity:1;isolation:auto;mix-blend-mode:normal;color-interpolation:sRGB;color-interpolation-filters:linearRGB;solid-color:#000000;solid-opacity:1;fill:#b3b3b3;fill-opacity:1;fill-rule:evenodd;stroke:#000000;stroke-width:2.5;stroke-linecap:round;stroke-linejoin:miter;stroke-miterlimit:4;stroke-dasharray:none;stroke-dashoffset:0;stroke-opacity:1;color-rendering:auto;image-rendering:auto;shape-rendering:auto;text-rendering:auto;enable-background:accumulate" />
      <path
         inkscape:connector-curvature="0"
         id="path6328"
         d="m 579.51143,786.3797 c -3.2159,1.0369 -6.4146,-0.3861 -8.7821,-2.5458 -2.3676,-2.1597 -4.2601,-5.2295 -5.4549,-8.8704 -1.1948,-3.6408 -1.4864,-7.2268 -0.8538,-10.3539 0.6326,-3.12704 2.374,-6.14492 5.5899,-7.18182 3.2159,-1.03691 6.4152,0.38788 8.7827,2.54763 2.3676,2.15975 4.2601,5.22959 5.4549,8.87039 1.1948,3.6408 1.4864,7.2268 0.8538,10.3539 -0.6326,3.1271 -2.3746,6.1431 -5.5905,7.18 z m -1.8783,-5.7237 c 0.4242,-0.1368 1.1248,-0.7822 1.4981,-2.6278 0.3734,-1.8456 0.2343,-4.541 -0.6759,-7.3146 -0.9102,-2.7736 -2.3981,-5.0362 -3.7954,-6.3108 -1.3973,-1.27471 -2.347,-1.38811 -2.7711,-1.25135 -0.4241,0.13676 -1.1247,0.78224 -1.4981,2.62785 -0.3734,1.8456 -0.2337,4.5428 0.6765,7.3164 0.9102,2.7737 2.3975,5.0343 3.7948,6.309 1.3974,1.2747 2.347,1.3881 2.7711,1.2513 z"
         style="color:#000000;font-style:normal;font-variant:normal;font-weight:normal;font-stretch:normal;font-size:medium;line-height:normal;font-family:sans-serif;text-indent:0;text-align:start;text-decoration:none;text-decoration-line:none;text-decoration-style:solid;text-decoration-color:#000000;letter-spacing:normal;word-spacing:normal;text-transform:none;writing-mode:lr-tb;direction:ltr;baseline-shift:baseline;text-anchor:start;white-space:normal;clip-rule:nonzero;display:inline;overflow:visible;visibility:visible;opacity:1;isolation:auto;mix-blend-mode:normal;color-interpolation:sRGB;color-interpolation-filters:linearRGB;solid-color:#000000;solid-opacity:1;fill:#ff0000;fill-opacity:1;fill-rule:nonzero;stroke:#000000;stroke-width:2.5;stroke-linecap:round;stroke-linejoin:round;stroke-miterlimit:4;stroke-dasharray:none;stroke-dashoffset:0;stroke-opacity:1;color-rendering:auto;image-rendering:auto;shape-rendering:auto;text-rendering:auto;enable-background:accumulate" />
      <path
         inkscape:connector-curvature="0"
         id="path6330"
         d="m 561.49153,720.24876 a 2.5393719,2.5071709 0 0 0 -1.9381,4.12271 l 27.482,33.14031 a 2.5393719,2.5071709 0 1 0 3.9277,-3.17478 l -27.48,-33.14227 a 2.5393719,2.5071709 0 0 0 -1.9916,-0.94597 z"
         style="color:#000000;font-style:normal;font-variant:normal;font-weight:normal;font-stretch:normal;font-size:medium;line-height:normal;font-family:sans-serif;text-indent:0;text-align:start;text-decoration:none;text-decoration-line:none;text-decoration-style:solid;text-decoration-color:#000000;letter-spacing:normal;word-spacing:normal;text-transform:none;writing-mode:lr-tb;direction:ltr;baseline-shift:baseline;text-anchor:start;white-space:normal;clip-rule:nonzero;display:inline;overflow:visible;visibility:visible;opacity:1;isolation:auto;mix-blend-mode:normal;color-interpolation:sRGB;color-interpolation-filters:linearRGB;solid-color:#000000;solid-opacity:1;fill:#b3b3b3;fill-opacity:1;fill-rule:evenodd;stroke:#000000;stroke-width:2.5;stroke-linecap:round;stroke-linejoin:miter;stroke-miterlimit:4;stroke-dasharray:none;stroke-dashoffset:0;stroke-opacity:1;color-rendering:auto;image-rendering:auto;shape-rendering:auto;text-rendering:auto;enable-background:accumulate" />
      <path
         inkscape:connector-curvature="0"
         id="path6332"
         d="m 600.83843,779.5031 c 3.2159,-1.0369 4.9579,-4.0529 5.5905,-7.18 0.6326,-3.1271 0.341,-6.7131 -0.8538,-10.35391 -1.1948,-3.64081 -3.0873,-6.71061 -5.4548,-8.87035 -2.3676,-2.15975 -5.5669,-3.58455 -8.7828,-2.54764 -3.2159,1.03691 -4.9573,4.05478 -5.5899,7.18187 -0.6326,3.12711 -0.3409,6.71313 0.8538,10.35393 1.1948,3.6408 3.0874,6.7106 5.4549,8.8703 2.3675,2.1598 5.5663,3.5827 8.7821,2.5458 z m -1.8783,-5.7237 c -0.4241,0.1368 -1.3737,0.023 -2.771,-1.2513 -1.3974,-1.2747 -2.8847,-3.5353 -3.7949,-6.3089 -0.9102,-2.77363 -1.0498,-5.47088 -0.6765,-7.31648 0.3734,-1.8456 1.074,-2.49108 1.4981,-2.62784 0.4241,-0.13676 1.3738,-0.0234 2.7711,1.25131 1.3973,1.27466 2.8852,3.53721 3.7954,6.3108 0.9102,2.77361 1.0493,5.46901 0.6759,7.31461 -0.3733,1.8456 -1.0739,2.4911 -1.4981,2.6278 z"
         style="color:#000000;font-style:normal;font-variant:normal;font-weight:normal;font-stretch:normal;font-size:medium;line-height:normal;font-family:sans-serif;text-indent:0;text-align:start;text-decoration:none;text-decoration-line:none;text-decoration-style:solid;text-decoration-color:#000000;letter-spacing:normal;word-spacing:normal;text-transform:none;writing-mode:lr-tb;direction:ltr;baseline-shift:baseline;text-anchor:start;white-space:normal;clip-rule:nonzero;display:inline;overflow:visible;visibility:visible;opacity:1;isolation:auto;mix-blend-mode:normal;color-interpolation:sRGB;color-interpolation-filters:linearRGB;solid-color:#000000;solid-opacity:1;fill:#ff0000;fill-opacity:1;fill-rule:nonzero;stroke:#000000;stroke-width:2.5;stroke-linecap:round;stroke-linejoin:round;stroke-miterlimit:4;stroke-dasharray:none;stroke-dashoffset:0;stroke-opacity:1;color-rendering:auto;image-rendering:auto;shape-rendering:auto;text-rendering:auto;enable-background:accumulate" />
    </g>
  </g>
</svg>
