<?xml version="1.0" encoding="UTF-8" standalone="no"?>
<!-- Created with Inkscape (http://www.inkscape.org/) -->

<svg
   xmlns:dc="http://purl.org/dc/elements/1.1/"
   xmlns:cc="http://creativecommons.org/ns#"
   xmlns:rdf="http://www.w3.org/1999/02/22-rdf-syntax-ns#"
   xmlns:svg="http://www.w3.org/2000/svg"
   xmlns="http://www.w3.org/2000/svg"
   xmlns:sodipodi="http://sodipodi.sourceforge.net/DTD/sodipodi-0.dtd"
   xmlns:inkscape="http://www.inkscape.org/namespaces/inkscape"
   width="84.955231mm"
   height="67.057922mm"
   viewBox="0 0 301.02249 237.60682"
   id="svg6460"
   version="1.1"
   inkscape:version="0.91 r13725"
   sodipodi:docname="Piping2.svg">
  <defs
     id="defs6462" />
  <sodipodi:namedview
     id="base"
     pagecolor="#ffffff"
     bordercolor="#666666"
     borderopacity="1.0"
     inkscape:pageopacity="0.0"
     inkscape:pageshadow="2"
     inkscape:zoom="0.98994949"
     inkscape:cx="120.18175"
     inkscape:cy="46.785094"
     inkscape:document-units="px"
     inkscape:current-layer="layer1"
     showgrid="false"
     fit-margin-top="0"
     fit-margin-left="0"
     fit-margin-right="0"
     fit-margin-bottom="0"
     inkscape:window-width="1366"
     inkscape:window-height="745"
     inkscape:window-x="-8"
     inkscape:window-y="-8"
     inkscape:window-maximized="1" />
  <metadata
     id="metadata6465">
    <rdf:RDF>
      <cc:Work
         rdf:about="">
        <dc:format>image/svg+xml</dc:format>
        <dc:type
           rdf:resource="http://purl.org/dc/dcmitype/StillImage" />
        <dc:title></dc:title>
      </cc:Work>
    </rdf:RDF>
  </metadata>
  <g
     inkscape:label="Calque 1"
     inkscape:groupmode="layer"
     id="layer1"
     transform="translate(-40.352772,-690.76144)">
    <g
       id="g5071"
       transform="translate(109.68064,276.02535)">
      <g
         transform="matrix(0,1,-1,0,500.24106,66.97959)"
         id="g5020"
         style="display:inline">
        <rect
           y="458.03918"
           x="438.83429"
           height="92.85714"
           width="48.0457"
           id="rect5022"
           style="color:#000000;display:inline;overflow:visible;visibility:visible;fill:#6f916f;fill-opacity:1;fill-rule:nonzero;stroke:#0b280b;stroke-width:3;stroke-miterlimit:4;stroke-dasharray:none;stroke-dashoffset:0;marker:none;enable-background:accumulate" />
        <rect
           style="color:#000000;display:inline;overflow:visible;visibility:visible;fill:#6f916f;fill-opacity:1;fill-rule:nonzero;stroke:#0b280b;stroke-width:3;stroke-miterlimit:4;stroke-dasharray:none;stroke-dashoffset:0;marker:none;enable-background:accumulate"
           id="rect5024"
           width="56.907108"
           height="27.197224"
           x="434.40359"
           y="540.8717" />
        <path
           style="fill:#d7f4d7;stroke:#d7f4d7;stroke-width:1px;stroke-linecap:butt;stroke-linejoin:miter;stroke-opacity:1"
           d="m 445.16412,524.07143 0,12.85714"
           id="path5026"
           inkscape:connector-curvature="0" />
        <path
           inkscape:connector-curvature="0"
           id="path5028"
           d="m 440.15135,545.49189 0,18.15906"
           style="fill:#d7f4d7;stroke:#d7f4d7;stroke-width:1px;stroke-linecap:butt;stroke-linejoin:miter;stroke-opacity:1" />
      </g>
    </g>
    <g
       style="display:inline;fill:#217821;fill-opacity:1"
       transform="translate(-379.41259,257.51229)"
       id="g5138"
       inkscape:export-filename="D:\Workspaces\Pages\beepbeep-3\images\pipe-complete2.png"
       inkscape:export-xdpi="63"
       inkscape:export-ydpi="63">
      <rect
         style="color:#000000;display:inline;overflow:visible;visibility:visible;fill:#217821;fill-opacity:1;fill-rule:nonzero;stroke:#0b280b;stroke-width:3;stroke-miterlimit:4;stroke-dasharray:none;stroke-dashoffset:0;marker:none;enable-background:accumulate"
         id="rect5140"
         width="48.0457"
         height="92.85714"
         x="524.32697"
         y="609.25812"
         transform="matrix(0,1,1,0,0,0)" />
      <rect
         y="692.09064"
         x="519.89624"
         height="27.197224"
         width="56.907108"
         id="rect5142"
         style="color:#000000;display:inline;overflow:visible;visibility:visible;fill:#217821;fill-opacity:1;fill-rule:nonzero;stroke:#0b280b;stroke-width:3;stroke-miterlimit:4;stroke-dasharray:none;stroke-dashoffset:0;marker:none;enable-background:accumulate"
         transform="matrix(0,1,1,0,0,0)" />
      <path
         inkscape:connector-curvature="0"
         id="path5144"
         d="m 675.29037,530.65678 12.85714,0"
         style="fill:#217821;fill-opacity:1;stroke:#d7f4d7;stroke-width:1px;stroke-linecap:butt;stroke-linejoin:miter;stroke-opacity:1" />
      <path
         style="fill:#217821;fill-opacity:1;stroke:#d7f4d7;stroke-width:1px;stroke-linecap:butt;stroke-linejoin:miter;stroke-opacity:1"
         d="m 696.71083,525.64401 18.15906,0"
         id="path5146"
         inkscape:connector-curvature="0" />
    </g>
    <rect
       y="-904.63818"
       x="-295.27692"
       height="195.53188"
       width="208.89189"
       id="rect4487"
       style="color:#000000;display:inline;overflow:visible;visibility:visible;fill:#6f918a;fill-opacity:1;fill-rule:nonzero;stroke:#0b280b;stroke-width:3.00000024;stroke-miterlimit:4;stroke-dasharray:none;stroke-dashoffset:0;marker:none;enable-background:accumulate"
       transform="scale(-1,-1)"
       inkscape:export-filename="D:\Workspaces\Pages\beepbeep-3\images\pipe-complete2.png"
       inkscape:export-xdpi="63"
       inkscape:export-ydpi="63" />
    <g
       id="g5083"
       transform="translate(-369.61887,642.05635)">
      <g
         id="g7665"
         transform="translate(0,-82.832514)">
        <rect
           ry="9.0913696"
           y="133.0376"
           x="578.24731"
           height="32.324883"
           width="64.649765"
           id="rect5085"
           style="opacity:1;fill:#ffaacc;fill-opacity:1;stroke:#0b280b;stroke-width:3;stroke-linecap:round;stroke-linejoin:round;stroke-miterlimit:4;stroke-dasharray:none;stroke-opacity:1" />
        <text
           transform="scale(1.1165746,0.89559622)"
           sodipodi:linespacing="125%"
           id="text5087"
           y="177.95795"
           x="528.23029"
           style="font-style:normal;font-weight:normal;font-size:30.5739975px;line-height:125%;font-family:sans-serif;letter-spacing:0px;word-spacing:0px;fill:#000000;fill-opacity:1;stroke:none;stroke-width:1px;stroke-linecap:butt;stroke-linejoin:miter;stroke-opacity:1"
           xml:space="preserve"><tspan
             y="177.95795"
             x="528.23029"
             id="tspan5089"
             sodipodi:role="line">10</tspan></text>
      </g>
    </g>
    <path
       inkscape:connector-curvature="0"
       id="path5091"
       d="m 240.0092,733.69628 -9.41227,40.27601 -5.74083,0 0,2.55285 7.75925,0 8.53977,-36.54146 7.40751,36.86306 8.11347,0 0,-2.55285 -6.02916,0 -8.15076,-40.55772 -2.48698,-0.0399 z"
       style="color:#000000;font-style:normal;font-variant:normal;font-weight:normal;font-stretch:normal;font-size:medium;line-height:normal;font-family:sans-serif;text-indent:0;text-align:start;text-decoration:none;text-decoration-line:none;text-decoration-style:solid;text-decoration-color:#000000;letter-spacing:normal;word-spacing:normal;text-transform:none;direction:ltr;block-progression:tb;writing-mode:lr-tb;baseline-shift:baseline;text-anchor:start;white-space:normal;clip-rule:nonzero;display:inline;overflow:visible;visibility:visible;opacity:1;isolation:auto;mix-blend-mode:normal;color-interpolation:sRGB;color-interpolation-filters:linearRGB;solid-color:#000000;solid-opacity:1;fill:#ff00ff;fill-opacity:1;fill-rule:evenodd;stroke:#000000;stroke-width:1;stroke-linecap:butt;stroke-linejoin:miter;stroke-miterlimit:4;stroke-dasharray:none;stroke-dashoffset:0;stroke-opacity:1;color-rendering:auto;image-rendering:auto;shape-rendering:auto;text-rendering:auto;enable-background:accumulate" />
    <g
       transform="matrix(0.66401922,0,0,0.66338375,-112.87251,917.27459)"
       id="g5093">
      <path
         sodipodi:type="star"
         style="opacity:1;fill:#ff0000;fill-opacity:1;stroke:#000000;stroke-width:1.50670159;stroke-linecap:round;stroke-linejoin:round;stroke-miterlimit:4;stroke-dasharray:none;stroke-opacity:1"
         id="path5095"
         sodipodi:sides="3"
         sodipodi:cx="-529.28571"
         sodipodi:cy="111.57665"
         sodipodi:r1="46.642365"
         sodipodi:r2="23.321182"
         sodipodi:arg1="0.52359878"
         sodipodi:arg2="1.5707963"
         inkscape:flatsided="false"
         inkscape:rounded="0"
         inkscape:randomized="0"
         d="m -488.89223,134.89783 -40.39347,0 -40.39348,0 20.19674,-34.981768 20.19673,-34.981774 20.19674,34.981773 z"
         transform="scale(-1,-1)"
         inkscape:transform-center-y="11.660595" />
      <path
         inkscape:transform-center-y="6.783058"
         transform="matrix(-0.59328705,0,0,-0.58170774,218.23379,-45.25437)"
         d="m -483.89223,132.38754 -40.39347,0 -40.39348,0 20.19674,-34.98177 20.19673,-34.981774 20.19674,34.981773 z"
         inkscape:randomized="0"
         inkscape:rounded="0"
         inkscape:flatsided="false"
         sodipodi:arg2="1.5707963"
         sodipodi:arg1="0.52359878"
         sodipodi:r2="23.321182"
         sodipodi:r1="46.642365"
         sodipodi:cy="109.06636"
         sodipodi:cx="-524.28571"
         sodipodi:sides="3"
         id="path5097"
         style="opacity:1;fill:#f9f9f9;fill-opacity:1;stroke:#000000;stroke-width:2.56473446;stroke-linecap:round;stroke-linejoin:round;stroke-miterlimit:4;stroke-dasharray:none;stroke-opacity:1"
         sodipodi:type="star" />
    </g>
    <g
       transform="matrix(0.76470589,0,0,0.77045643,-539.42958,513.66818)"
       id="g5099">
      <rect
         style="opacity:1;fill:#666666;fill-opacity:1;stroke:#000000;stroke-width:1.30280292;stroke-linecap:round;stroke-linejoin:round;stroke-miterlimit:4;stroke-dasharray:none;stroke-opacity:1"
         id="rect5101"
         width="24.285715"
         height="63.571434"
         x="880"
         y="401.29077" />
      <g
         id="g5103"
         transform="translate(85.714286,86.428572)">
        <circle
           r="8.5714283"
           cy="325.21933"
           cx="806.42859"
           id="circle5105"
           style="opacity:1;fill:#ff0000;fill-opacity:1;stroke:#000000;stroke-width:1.30280292;stroke-linecap:round;stroke-linejoin:round;stroke-miterlimit:4;stroke-dasharray:none;stroke-opacity:1" />
        <circle
           style="opacity:1;fill:#ffff00;fill-opacity:1;stroke:#000000;stroke-width:1.30280292;stroke-linecap:round;stroke-linejoin:round;stroke-miterlimit:4;stroke-dasharray:none;stroke-opacity:1"
           id="circle5107"
           cx="806.42859"
           cy="346.64789"
           r="8.5714283" />
        <circle
           r="8.5714283"
           cy="368.07648"
           cx="806.42859"
           id="circle5109"
           style="opacity:1;fill:#00ff00;fill-opacity:1;stroke:#000000;stroke-width:1.30280292;stroke-linecap:round;stroke-linejoin:round;stroke-miterlimit:4;stroke-dasharray:none;stroke-opacity:1" />
      </g>
    </g>
    <g
       id="g5118"
       transform="translate(-743.46665,1060.5611)">
      <path
         sodipodi:type="arc"
         style="color:#000000;display:inline;overflow:visible;visibility:visible;fill:none;stroke:#d5ffd5;stroke-width:1;stroke-miterlimit:4;stroke-dasharray:none;stroke-dashoffset:0;stroke-opacity:1;marker:none;enable-background:accumulate"
         id="path5120"
         sodipodi:cx="144.06477"
         sodipodi:cy="-904.46674"
         sodipodi:rx="5.8750925"
         sodipodi:ry="5.8140969"
         d="m 149.93987,-904.46674 a 5.8750925,5.8140969 0 0 1 -5.8751,5.8141"
         sodipodi:start="0"
         sodipodi:end="1.5707963"
         sodipodi:open="true"
         transform="matrix(0,-1,-1,0,0,0)"
         inkscape:export-filename="D:\Workspaces\Pages\beepbeep-3\images\pipe-complete2.png"
         inkscape:export-xdpi="63"
         inkscape:export-ydpi="63" />
      <path
         inkscape:connector-curvature="0"
         d="m 872.66148,-134.2266 -0.51655,-0.52011 c -0.0503,-0.0631 -0.0993,-0.12761 -0.14622,-0.19337 l -0.0462,0 -2.93699,-2.95742 26.65714,0 0,-5.51434 6.70131,0 0,-32.42361 3.6157,3.64047 c 0.39353,0.57451 0.62433,1.26949 0.62433,2.01635 l 0,10.77262 0.14204,0 0,0.10096 -0.16175,0 0,23.51757 -0.0139,0 c -0.0447,0.1234 -0.0951,0.24259 -0.15154,0.35899 l -4.1e-4,4.1e-4 c -0.0308,0.0631 -0.0629,0.1234 -0.0965,0.18413 l 0,0.014 c -0.0167,0.0294 -0.0336,0.0589 -0.0503,0.087 l -5.5e-4,7e-4 c -0.0629,0.10376 -0.13001,0.20375 -0.20159,0.29953 l -7e-4,0 -0.028,0.0364 0,0.014 c -0.0518,0.0673 -0.10624,0.13321 -0.16342,0.19688 l 0,0.014 -0.0308,0.0336 0,0 -0.028,0.0309 -0.0139,0.014 c -0.0336,0.0351 -0.0685,0.0715 -0.10345,0.10517 l 0,0 0,0 c -0.0616,0.0589 -0.12441,0.11499 -0.18915,0.16996 l 0,0.014 -0.0321,0.0267 -0.014,0.014 -0.0293,0.0239 -0.014,0.014 c -0.0238,0.0182 -0.0475,0.0379 -0.0727,0.0561 l -0.0139,0.014 -0.0308,0.0224 -0.0139,0.014 -0.0139,0.014 -0.0321,0.0224 -0.0377,0.0252 0,0 0,0 -0.0391,0.0266 -7.1e-4,0 -0.0405,0.0252 0,7e-4 -0.0392,0.0239 0,0 -0.0349,0.0224 -0.0139,0.014 -0.0321,0.0197 -0.0139,0.014 -0.014,0 -0.0349,0.0197 0,0 -0.0265,0.014 -0.0139,0.014 -0.0238,0.014 -0.0139,0.014 -0.0224,0.014 -0.014,0.014 -0.028,0.014 -0.0182,0.014 -0.0308,0.0154 -0.0139,0.014 -0.0364,0.0169 -0.0139,0 -0.0139,0.014 -0.0139,0.014 -0.0321,0.014 -0.0405,0.0182 0,0 -0.0447,0.0182 -6.9e-4,0 -0.0447,0.0182 0,7e-4 -0.0405,0.0169 c -0.0853,0.0322 -0.17084,0.0603 -0.25835,0.0855 l -30.31101,0 c -0.46301,-0.13462 -0.88757,-0.36263 -1.25245,-0.66216 z"
         style="fill:#785f42;fill-opacity:1;fill-rule:evenodd;stroke:#231f20;stroke-width:2.50012469;stroke-linecap:butt;stroke-linejoin:round;stroke-miterlimit:22.92558479;stroke-dasharray:none;stroke-opacity:1"
         id="path5122"
         inkscape:export-filename="D:\Workspaces\Pages\beepbeep-3\images\pipe-complete2.png"
         inkscape:export-xdpi="63.436432"
         inkscape:export-ydpi="63.436432" />
      <path
         inkscape:connector-curvature="0"
         d="m 898.90805,-137.69165 -28.35289,0 c -1.94946,0 -3.5444,-1.60603 -3.5444,-3.5688 l 0,-32.92382 c 0,-1.9629 1.59494,-3.56881 3.5444,-3.56881 l 28.35289,0 c 1.94946,0 3.54413,1.60591 3.54413,3.56881 l 0,32.92382 c 0,1.96277 -1.59467,3.5688 -3.54413,3.5688 z"
         style="fill:#ffaacc;fill-opacity:1;fill-rule:evenodd;stroke:#231f20;stroke-width:2.50012469;stroke-linecap:butt;stroke-linejoin:round;stroke-miterlimit:22.92558479;stroke-dasharray:none;stroke-opacity:1"
         id="path5124"
         inkscape:export-filename="D:\Workspaces\Pages\beepbeep-3\images\pipe-complete2.png"
         inkscape:export-xdpi="63.436432"
         inkscape:export-ydpi="63.436432" />
      <text
         xml:space="preserve"
         style="font-style:normal;font-weight:normal;font-size:16.08955765px;line-height:125%;font-family:sans-serif;letter-spacing:0px;word-spacing:0px;fill:#000000;fill-opacity:1;stroke:none;stroke-width:1px;stroke-linecap:butt;stroke-linejoin:miter;stroke-opacity:1"
         x="943.5451"
         y="-138.47934"
         id="text5126"
         sodipodi:linespacing="125%"
         transform="scale(0.92237834,1.0841538)"
         inkscape:export-xdpi="63.797142"
         inkscape:export-ydpi="63.797142"
         inkscape:export-filename="D:\Workspaces\Pages\beepbeep-3\images\pipe-complete2.png"><tspan
           sodipodi:role="line"
           x="943.5451"
           y="-138.47934"
           id="tspan5128">100</tspan></text>
    </g>
    <g
       transform="translate(-369.98804,749.13253)"
       id="g5130">
      <rect
         ry="9.0913696"
         y="133.0376"
         x="578.24731"
         height="32.324883"
         width="64.649765"
         id="rect5132"
         style="opacity:1;fill:#ffaacc;fill-opacity:1;stroke:#0b280b;stroke-width:3;stroke-linecap:round;stroke-linejoin:round;stroke-miterlimit:4;stroke-dasharray:none;stroke-opacity:1" />
      <text
         transform="scale(1.1165746,0.89559622)"
         sodipodi:linespacing="125%"
         id="text5134"
         y="177.95795"
         x="528.23029"
         style="font-style:normal;font-weight:normal;font-size:30.5739975px;line-height:125%;font-family:sans-serif;letter-spacing:0px;word-spacing:0px;fill:#000000;fill-opacity:1;stroke:none;stroke-width:1px;stroke-linecap:butt;stroke-linejoin:miter;stroke-opacity:1"
         xml:space="preserve"><tspan
           y="177.95795"
           x="528.23029"
           id="tspan5136"
           sodipodi:role="line">10</tspan></text>
    </g>
    <g
       transform="translate(-468.61383,642.05635)"
       id="g7670">
      <g
         transform="translate(0,-82.832514)"
         id="g7672">
        <rect
           style="opacity:1;fill:#ffaacc;fill-opacity:1;stroke:#0b280b;stroke-width:3;stroke-linecap:round;stroke-linejoin:round;stroke-miterlimit:4;stroke-dasharray:none;stroke-opacity:1"
           id="rect7674"
           width="64.649765"
           height="32.324883"
           x="578.24731"
           y="133.0376"
           ry="9.0913696" />
        <text
           xml:space="preserve"
           style="font-style:normal;font-weight:normal;font-size:25.27347755px;line-height:125%;font-family:sans-serif;letter-spacing:0px;word-spacing:0px;fill:#000000;fill-opacity:1;stroke:none;stroke-width:1px;stroke-linecap:butt;stroke-linejoin:miter;stroke-opacity:1"
           x="635.02539"
           y="147.10591"
           id="text7676"
           sodipodi:linespacing="125%"
           transform="scale(0.92299749,1.0834266)"><tspan
             sodipodi:role="line"
             id="tspan7678"
             x="635.02539"
             y="147.10591">WL1</tspan></text>
      </g>
    </g>
    <g
       id="g7795"
       transform="translate(-378.80724,59.599004)">
      <rect
         y="708.24023"
         x="492.24835"
         height="19.588644"
         width="19.741894"
         id="rect10557"
         style="opacity:1;fill:#ffff00;fill-opacity:1;stroke:#000000;stroke-width:2;stroke-linecap:round;stroke-linejoin:round;stroke-miterlimit:4;stroke-dasharray:none;stroke-opacity:1" />
      <rect
         style="opacity:1;fill:#ffff00;fill-opacity:1;stroke:#000000;stroke-width:2;stroke-linecap:round;stroke-linejoin:round;stroke-miterlimit:4;stroke-dasharray:none;stroke-opacity:1"
         id="rect10559"
         width="19.741894"
         height="7.5827007"
         x="492.24835"
         y="701.92133" />
      <g
         id="g10561"
         transform="translate(164.74356,-147.40855)"
         style="opacity:0.48800001;stroke-width:2;stroke-miterlimit:4;stroke-dasharray:none">
        <rect
           transform="matrix(0.97308348,-0.23045292,0.23045292,0.97308348,0,0)"
           y="912.7323"
           x="142.59392"
           height="19.588644"
           width="19.741894"
           id="rect10563"
           style="opacity:1;fill:#f9f9f9;fill-opacity:1;stroke:#000000;stroke-width:2;stroke-linecap:round;stroke-linejoin:round;stroke-miterlimit:4;stroke-dasharray:none;stroke-opacity:1" />
        <rect
           transform="matrix(0.97308348,-0.23045292,0.23045292,0.97308348,0,0)"
           style="opacity:1;fill:#f9f9f9;fill-opacity:1;stroke:#000000;stroke-width:2;stroke-linecap:round;stroke-linejoin:round;stroke-miterlimit:4;stroke-dasharray:none;stroke-opacity:1"
           id="rect10565"
           width="19.741894"
           height="19.588644"
           x="161.69899"
           y="912.7323" />
        <rect
           transform="matrix(0.97308348,-0.23045292,0.23045292,0.97308348,0,0)"
           style="opacity:1;fill:#f9f9f9;fill-opacity:1;stroke:#000000;stroke-width:2;stroke-linecap:round;stroke-linejoin:round;stroke-miterlimit:4;stroke-dasharray:none;stroke-opacity:1"
           id="rect10567"
           width="19.741894"
           height="7.5827007"
           x="142.59392"
           y="906.41339" />
        <rect
           transform="matrix(0.97308348,-0.23045292,0.23045292,0.97308348,0,0)"
           y="906.41339"
           x="161.69899"
           height="7.5827007"
           width="19.741894"
           id="rect10569"
           style="opacity:1;fill:#f9f9f9;fill-opacity:1;stroke:#000000;stroke-width:2;stroke-linecap:round;stroke-linejoin:round;stroke-miterlimit:4;stroke-dasharray:none;stroke-opacity:1" />
      </g>
      <g
         id="g10571"
         transform="matrix(-0.41896215,0.25678049,-0.25894892,-0.42250015,757.50236,993.32259)">
        <ellipse
           ry="9.2857151"
           rx="7.5"
           cy="797.36218"
           cx="108.21429"
           id="ellipse10573"
           style="opacity:1;fill:none;fill-opacity:1;stroke:#000000;stroke-width:2.02649903;stroke-linecap:round;stroke-linejoin:round;stroke-miterlimit:4;stroke-dasharray:none;stroke-opacity:1" />
        <ellipse
           style="opacity:1;fill:none;fill-opacity:1;stroke:#000000;stroke-width:2.02649903;stroke-linecap:round;stroke-linejoin:round;stroke-miterlimit:4;stroke-dasharray:none;stroke-opacity:1"
           id="ellipse10575"
           cx="126.78571"
           cy="797.36218"
           rx="7.5"
           ry="9.2857151" />
        <path
           inkscape:connector-curvature="0"
           id="path10577"
           d="m 108.57143,788.07649 18.20398,-31.53022"
           style="fill:none;fill-rule:evenodd;stroke:#000000;stroke-width:2.02649903px;stroke-linecap:butt;stroke-linejoin:miter;stroke-opacity:1" />
        <path
           style="fill:none;fill-rule:evenodd;stroke:#000000;stroke-width:2.02649903px;stroke-linecap:butt;stroke-linejoin:miter;stroke-opacity:1"
           d="M 126.77541,788.07649 108.57143,756.54627"
           id="path10579"
           inkscape:connector-curvature="0" />
      </g>
    </g>
  </g>
</svg>
