<?xml version="1.0" encoding="UTF-8" standalone="no"?>
<!-- Created with Inkscape (http://www.inkscape.org/) -->

<svg
   xmlns:dc="http://purl.org/dc/elements/1.1/"
   xmlns:cc="http://creativecommons.org/ns#"
   xmlns:rdf="http://www.w3.org/1999/02/22-rdf-syntax-ns#"
   xmlns:svg="http://www.w3.org/2000/svg"
   xmlns="http://www.w3.org/2000/svg"
   xmlns:xlink="http://www.w3.org/1999/xlink"
   xmlns:sodipodi="http://sodipodi.sourceforge.net/DTD/sodipodi-0.dtd"
   xmlns:inkscape="http://www.inkscape.org/namespaces/inkscape"
   width="56.505127"
   height="35.904762"
   viewBox="0 0 14.950314 9.499802"
   version="1.1"
   id="svg6692"
   inkscape:version="0.92.3 (2405546, 2018-03-11)"
   sodipodi:docname="EndsWith.svg">
  <defs
     id="defs6686">
    <pattern
       patternTransform="translate(211.12478,249.18856)"
       id="pattern19516"
       xlink:href="#pattern19087"
       inkscape:collect="always" />
    <pattern
       patternTransform="translate(211.12478,249.18856)"
       id="pattern19514"
       xlink:href="#pattern19087"
       inkscape:collect="always" />
    <marker
       inkscape:isstock="true"
       style="overflow:visible"
       id="marker19218"
       refX="0"
       refY="0"
       orient="auto"
       inkscape:stockid="Arrow1Mend">
      <path
         inkscape:connector-curvature="0"
         transform="matrix(-0.4,0,0,-0.4,-4,0)"
         style="fill:#000000;fill-opacity:1;fill-rule:evenodd;stroke:#000000;stroke-width:1.00000003pt;stroke-opacity:1"
         d="M 0,0 5,-5 -12.5,0 5,5 Z"
         id="path19216" />
    </marker>
    <pattern
       inkscape:collect="always"
       xlink:href="#pattern14012"
       id="pattern19087"
       patternTransform="translate(-162.37544,-44.299377)" />
    <pattern
       inkscape:collect="always"
       xlink:href="#pattern13234"
       id="pattern14012"
       patternTransform="translate(-162.37544,275.2245)" />
    <pattern
       inkscape:collect="always"
       xlink:href="#pattern13228"
       id="pattern13234"
       patternTransform="translate(-162.37544,-190.80306)" />
    <pattern
       inkscape:collect="always"
       xlink:href="#pattern13172"
       id="pattern13228"
       patternTransform="translate(-123.2636,-190.80306)" />
    <pattern
       inkscape:collect="always"
       xlink:href="#pattern13160"
       id="pattern13172"
       patternTransform="translate(83.565131,-190.80306)" />
    <pattern
       inkscape:collect="always"
       xlink:href="#pattern12937"
       id="pattern13160"
       patternTransform="translate(-216.73428,-345.92461)" />
    <pattern
       patternTransform="translate(129.23747,329.20085)"
       id="pattern12937"
       xlink:href="#pattern11271"
       inkscape:collect="always" />
    <pattern
       inkscape:collect="always"
       xlink:href="#pattern10729"
       id="pattern11271"
       patternTransform="translate(-108.74521,-817.75025)" />
    <pattern
       inkscape:collect="always"
       xlink:href="#pattern10723"
       id="pattern10729"
       patternTransform="translate(-315.93271,299.74975)" />
    <pattern
       inkscape:collect="always"
       xlink:href="#pattern10621"
       id="pattern10723"
       patternTransform="translate(-256.87021,291.781)" />
    <pattern
       patternTransform="translate(130.85338,329.2008)"
       id="pattern10621"
       xlink:href="#pattern10938-758-124-313-1-6"
       inkscape:collect="always" />
    <pattern
       id="pattern10938-758-124-313-1-6"
       patternTransform="translate(105.32577,298.98598)"
       height="22.497425"
       width="13.498456"
       patternUnits="userSpaceOnUse">
      <rect
         style="fill:url(#pattern10936-906-732-194-9-9);stroke:none"
         width="13.498456"
         height="22.497425"
         x="2.7339242e-015"
         y="-2.8144154e-014"
         id="rect12091-2-8" />
    </pattern>
    <pattern
       patternTransform="matrix(0.3213918,0,0,0.32139182,2.4829098e-6,-1.2431639e-5)"
       id="pattern10936-906-732-194-9-9"
       xlink:href="#pattern10926-828-791-730-3-2"
       inkscape:collect="always" />
    <pattern
       id="pattern10926-828-791-730-3-2"
       patternTransform="translate(105.32577,298.98598)"
       height="69.999989"
       width="41.999994"
       patternUnits="userSpaceOnUse">
      <path
         inkscape:connector-curvature="0"
         style="opacity:1;fill:#008080;fill-opacity:1;fill-rule:nonzero;stroke:none;stroke-width:2;stroke-linecap:round;stroke-linejoin:round;stroke-miterlimit:4;stroke-dasharray:6, 2;stroke-dashoffset:0;stroke-opacity:1"
         d="m 41.999994,6.9999993 a 13.999999,14 0 0 0 -0.99023,0.03515 13.999999,14 0 0 0 -1.38868,0.16797 13.999999,14 0 0 0 -1.365229,0.30664 13.999999,14 0 0 0 -1.32813,0.4414099 13.999999,14 0 0 0 -1.27734,0.57226 13.999999,14 0 0 0 -1.21484,0.6953199 13.999999,14 0 0 0 -1.13867,0.8144499 13.999999,14 0 0 0 -1.05079,0.92383 13.999999,14 0 0 0 -0.953119,1.02344 13.999999,14 0 0 0 -0.84766,1.11523 13.999999,14 0 0 0 -0.73242,1.19141 13.999999,14 0 0 0 -0.60742,1.261709 13.999999,14 0 0 0 -0.48047,1.31446 13.999999,14 0 0 0 -0.3457,1.35547 13.999999,14 0 0 0 -0.20899,1.38281 13.999999,14 0 0 0 -0.07031,1.39844 13.999999,14 0 0 0 0.03516,0.99023 13.999999,14 0 0 0 0.16796,1.38867 13.999999,14 0 0 0 0.30665,1.36524 13.999999,14 0 0 0 0.4414,1.328119 13.999999,14 0 0 0 0.57227,1.27735 13.999999,14 0 0 0 0.69531,1.21484 13.999999,14 0 0 0 0.81445,1.13867 13.999999,14 0 0 0 0.923829,1.05078 13.999999,14 0 0 0 1.02344,0.95313 13.999999,14 0 0 0 1.11523,0.84765 13.999999,14 0 0 0 1.19141,0.73047 13.999999,14 0 0 0 1.26172,0.60938 13.999999,14 0 0 0 1.31445,0.48047 13.999999,14 0 0 0 1.355469,0.3457 13.999999,14 0 0 0 1.38281,0.20898 13.999999,14 0 0 0 1.39844,0.07032 l 0,-27.9999977 z"
         id="path12095-1-6" />
      <path
         inkscape:connector-curvature="0"
         style="opacity:1;fill:#de87aa;fill-opacity:1;fill-rule:nonzero;stroke:none;stroke-width:2;stroke-linecap:round;stroke-linejoin:round;stroke-miterlimit:4;stroke-dasharray:6, 2;stroke-dashoffset:0;stroke-opacity:1"
         d="m 0,0 0,6.9999993 a 13.999997,13.999999 0 0 1 1.3984398,0.07031 13.999997,13.999999 0 0 1 1.3828098,0.20898 13.999997,13.999999 0 0 1 1.3554698,0.3457099 13.999997,13.999999 0 0 1 1.3144498,0.48047 13.999997,13.999999 0 0 1 1.2617198,0.6074199 13.999997,13.999999 0 0 1 1.1914099,0.73242 13.999997,13.999999 0 0 1 1.1152298,0.8476599 13.999997,13.999999 0 0 1 1.0234403,0.95312 13.999997,13.999999 0 0 1 0.923829,1.05078 13.999997,13.999999 0 0 1 0.81445,1.13867 13.999997,13.999999 0 0 1 0.69531,1.21485 13.999997,13.999999 0 0 1 0.57227,1.277339 13.999997,13.999999 0 0 1 0.4414,1.32617 13.999997,13.999999 0 0 1 0.30665,1.36719 13.999997,13.999999 0 0 1 0.16796,1.38867 13.999997,13.999999 0 0 1 0.03516,0.99024 13.999997,13.999999 0 0 1 -0.07031,1.39843 13.999997,13.999999 0 0 1 -0.20899,1.38282 13.999997,13.999999 0 0 1 -0.3457,1.35546 13.999997,13.999999 0 0 1 -0.48047,1.314459 13.999997,13.999999 0 0 1 -0.60742,1.25976 13.999997,13.999999 0 0 1 -0.73242,1.19336 13.999997,13.999999 0 0 1 -0.84766,1.11524 13.999997,13.999999 0 0 1 -0.9531194,1.02344 13.999997,13.999999 0 0 1 -1.0507898,0.92382 13.999997,13.999999 0 0 1 -1.1386699,0.81446 13.999997,13.999999 0 0 1 -1.2148398,0.69531 13.999997,13.999999 0 0 1 -1.2773398,0.57226 13.999997,13.999999 0 0 1 -1.3281298,0.44141 13.999997,13.999999 0 0 1 -1.3652298,0.30664 13.999997,13.999999 0 0 1 -1.38867984,0.16797 A 13.999997,13.999999 0 0 1 0,34.999997 l 0,34.999992 41.999994,0 0,-34.999992 a 13.999999,14 0 0 1 -1.39844,-0.07032 13.999999,14 0 0 1 -1.38281,-0.20898 13.999999,14 0 0 1 -1.355469,-0.3457 13.999999,14 0 0 1 -1.31445,-0.48047 13.999999,14 0 0 1 -1.26172,-0.60938 13.999999,14 0 0 1 -1.19141,-0.73047 13.999999,14 0 0 1 -1.11523,-0.84765 13.999999,14 0 0 1 -1.02344,-0.95313 13.999999,14 0 0 1 -0.923829,-1.05078 13.999999,14 0 0 1 -0.81445,-1.13867 13.999999,14 0 0 1 -0.69531,-1.21484 13.999999,14 0 0 1 -0.57227,-1.27735 13.999999,14 0 0 1 -0.4414,-1.328119 13.999999,14 0 0 1 -0.30665,-1.36524 13.999999,14 0 0 1 -0.16796,-1.38867 13.999999,14 0 0 1 -0.03516,-0.99023 13.999999,14 0 0 1 0.07031,-1.39844 13.999999,14 0 0 1 0.20899,-1.38281 13.999999,14 0 0 1 0.3457,-1.35547 13.999999,14 0 0 1 0.48047,-1.31446 13.999999,14 0 0 1 0.60742,-1.261709 13.999999,14 0 0 1 0.73242,-1.19141 13.999999,14 0 0 1 0.84766,-1.11523 13.999999,14 0 0 1 0.953119,-1.02344 13.999999,14 0 0 1 1.05079,-0.92383 13.999999,14 0 0 1 1.13867,-0.8144499 13.999999,14 0 0 1 1.21484,-0.6953199 13.999999,14 0 0 1 1.27734,-0.57226 13.999999,14 0 0 1 1.32813,-0.4414099 13.999999,14 0 0 1 1.365229,-0.30664 13.999999,14 0 0 1 1.38868,-0.16797 13.999999,14 0 0 1 0.99023,-0.03515 L 41.999994,0 0,0 Z"
         id="path12097-9-6" />
      <circle
         r="14.000001"
         style="opacity:1;fill:#008080;fill-opacity:1;fill-rule:nonzero;stroke:none;stroke-width:2;stroke-linecap:round;stroke-linejoin:round;stroke-miterlimit:4;stroke-dasharray:6.00000011, 2.00000002;stroke-dashoffset:0;stroke-opacity:1"
         id="circle12099-4-4"
         cx="21.000109"
         cy="55.999813" />
      <path
         inkscape:connector-curvature="0"
         style="opacity:1;fill:#008080;fill-opacity:1;fill-rule:nonzero;stroke:none;stroke-width:2;stroke-linecap:round;stroke-linejoin:round;stroke-miterlimit:4;stroke-dasharray:6, 2;stroke-dashoffset:0;stroke-opacity:1"
         d="m 0,34.999997 a 13.999999,14 0 0 0 0.99022986,-0.03516 13.999999,14 0 0 0 1.38867984,-0.16797 13.999999,14 0 0 0 1.3652298,-0.30664 13.999999,14 0 0 0 1.3281298,-0.44141 13.999999,14 0 0 0 1.2773398,-0.57226 13.999999,14 0 0 0 1.2148398,-0.69531 13.999999,14 0 0 0 1.1386699,-0.81446 13.999999,14 0 0 0 1.0507898,-0.92382 13.999999,14 0 0 0 0.9531194,-1.02344 13.999999,14 0 0 0 0.84766,-1.11524 13.999999,14 0 0 0 0.73242,-1.19336 13.999999,14 0 0 0 0.60742,-1.25976 13.999999,14 0 0 0 0.48047,-1.314459 13.999999,14 0 0 0 0.3457,-1.35546 13.999999,14 0 0 0 0.20899,-1.38282 13.999999,14 0 0 0 0.07031,-1.39843 13.999999,14 0 0 0 -0.03516,-0.99024 13.999999,14 0 0 0 -0.16796,-1.38867 13.999999,14 0 0 0 -0.30665,-1.36719 13.999999,14 0 0 0 -0.4414,-1.32617 13.999999,14 0 0 0 -0.57227,-1.277339 13.999999,14 0 0 0 -0.69531,-1.21485 13.999999,14 0 0 0 -0.81445,-1.13867 13.999999,14 0 0 0 -0.923829,-1.05078 A 13.999999,14 0 0 0 9.0195287,10.292969 13.999999,14 0 0 0 7.9042989,9.4453091 13.999999,14 0 0 0 6.712889,8.7128891 13.999999,14 0 0 0 5.4511692,8.1054692 13.999999,14 0 0 0 4.1367194,7.6249992 13.999999,14 0 0 0 2.7812496,7.2792893 13.999999,14 0 0 0 1.3984398,7.0703093 13.999999,14 0 0 0 0,6.9999993 L 0,34.999997 Z"
         id="path12101-7-9" />
    </pattern>
    <pattern
       inkscape:collect="always"
       xlink:href="#pattern14012"
       id="pattern19421"
       patternTransform="translate(-162.37544,-44.299377)" />
    <pattern
       inkscape:collect="always"
       xlink:href="#pattern13234"
       id="pattern19423"
       patternTransform="translate(-162.37544,275.2245)" />
    <pattern
       inkscape:collect="always"
       xlink:href="#pattern13228"
       id="pattern19425"
       patternTransform="translate(-162.37544,-190.80306)" />
    <pattern
       inkscape:collect="always"
       xlink:href="#pattern13172"
       id="pattern19427"
       patternTransform="translate(-123.2636,-190.80306)" />
    <pattern
       inkscape:collect="always"
       xlink:href="#pattern13160"
       id="pattern19429"
       patternTransform="translate(83.565131,-190.80306)" />
    <pattern
       inkscape:collect="always"
       xlink:href="#pattern12937"
       id="pattern19431"
       patternTransform="translate(-216.73428,-345.92461)" />
    <pattern
       patternTransform="translate(129.23747,329.20085)"
       id="pattern19433"
       xlink:href="#pattern11271"
       inkscape:collect="always" />
    <pattern
       inkscape:collect="always"
       xlink:href="#pattern10729"
       id="pattern19435"
       patternTransform="translate(-108.74521,-817.75025)" />
    <pattern
       inkscape:collect="always"
       xlink:href="#pattern10723"
       id="pattern19437"
       patternTransform="translate(-315.93271,299.74975)" />
    <pattern
       inkscape:collect="always"
       xlink:href="#pattern10621"
       id="pattern19439"
       patternTransform="translate(-256.87021,291.781)" />
    <pattern
       patternTransform="translate(130.85338,329.2008)"
       id="pattern19441"
       xlink:href="#pattern10938-758-124-313-1-6"
       inkscape:collect="always" />
    <pattern
       id="pattern19445"
       patternTransform="translate(105.32577,298.98598)"
       height="22.497425"
       width="13.498456"
       patternUnits="userSpaceOnUse">
      <rect
         style="fill:url(#pattern10936-906-732-194-9-9);stroke:none"
         width="13.498456"
         height="22.497425"
         x="2.7339242e-015"
         y="-2.8144154e-014"
         id="rect19443" />
    </pattern>
    <pattern
       patternTransform="matrix(0.3213918,0,0,0.32139182,2.4829098e-6,-1.2431639e-5)"
       id="pattern19447"
       xlink:href="#pattern10926-828-791-730-3-2"
       inkscape:collect="always" />
    <pattern
       id="pattern19457"
       patternTransform="translate(105.32577,298.98598)"
       height="69.999989"
       width="41.999994"
       patternUnits="userSpaceOnUse">
      <path
         inkscape:connector-curvature="0"
         style="opacity:1;fill:#008080;fill-opacity:1;fill-rule:nonzero;stroke:none;stroke-width:2;stroke-linecap:round;stroke-linejoin:round;stroke-miterlimit:4;stroke-dasharray:6, 2;stroke-dashoffset:0;stroke-opacity:1"
         d="m 41.999994,6.9999993 a 13.999999,14 0 0 0 -0.99023,0.03515 13.999999,14 0 0 0 -1.38868,0.16797 13.999999,14 0 0 0 -1.365229,0.30664 13.999999,14 0 0 0 -1.32813,0.4414099 13.999999,14 0 0 0 -1.27734,0.57226 13.999999,14 0 0 0 -1.21484,0.6953199 13.999999,14 0 0 0 -1.13867,0.8144499 13.999999,14 0 0 0 -1.05079,0.92383 13.999999,14 0 0 0 -0.953119,1.02344 13.999999,14 0 0 0 -0.84766,1.11523 13.999999,14 0 0 0 -0.73242,1.19141 13.999999,14 0 0 0 -0.60742,1.261709 13.999999,14 0 0 0 -0.48047,1.31446 13.999999,14 0 0 0 -0.3457,1.35547 13.999999,14 0 0 0 -0.20899,1.38281 13.999999,14 0 0 0 -0.07031,1.39844 13.999999,14 0 0 0 0.03516,0.99023 13.999999,14 0 0 0 0.16796,1.38867 13.999999,14 0 0 0 0.30665,1.36524 13.999999,14 0 0 0 0.4414,1.328119 13.999999,14 0 0 0 0.57227,1.27735 13.999999,14 0 0 0 0.69531,1.21484 13.999999,14 0 0 0 0.81445,1.13867 13.999999,14 0 0 0 0.923829,1.05078 13.999999,14 0 0 0 1.02344,0.95313 13.999999,14 0 0 0 1.11523,0.84765 13.999999,14 0 0 0 1.19141,0.73047 13.999999,14 0 0 0 1.26172,0.60938 13.999999,14 0 0 0 1.31445,0.48047 13.999999,14 0 0 0 1.355469,0.3457 13.999999,14 0 0 0 1.38281,0.20898 13.999999,14 0 0 0 1.39844,0.07032 l 0,-27.9999977 z"
         id="path19449" />
      <path
         inkscape:connector-curvature="0"
         style="opacity:1;fill:#de87aa;fill-opacity:1;fill-rule:nonzero;stroke:none;stroke-width:2;stroke-linecap:round;stroke-linejoin:round;stroke-miterlimit:4;stroke-dasharray:6, 2;stroke-dashoffset:0;stroke-opacity:1"
         d="m 0,0 0,6.9999993 a 13.999997,13.999999 0 0 1 1.3984398,0.07031 13.999997,13.999999 0 0 1 1.3828098,0.20898 13.999997,13.999999 0 0 1 1.3554698,0.3457099 13.999997,13.999999 0 0 1 1.3144498,0.48047 13.999997,13.999999 0 0 1 1.2617198,0.6074199 13.999997,13.999999 0 0 1 1.1914099,0.73242 13.999997,13.999999 0 0 1 1.1152298,0.8476599 13.999997,13.999999 0 0 1 1.0234403,0.95312 13.999997,13.999999 0 0 1 0.923829,1.05078 13.999997,13.999999 0 0 1 0.81445,1.13867 13.999997,13.999999 0 0 1 0.69531,1.21485 13.999997,13.999999 0 0 1 0.57227,1.277339 13.999997,13.999999 0 0 1 0.4414,1.32617 13.999997,13.999999 0 0 1 0.30665,1.36719 13.999997,13.999999 0 0 1 0.16796,1.38867 13.999997,13.999999 0 0 1 0.03516,0.99024 13.999997,13.999999 0 0 1 -0.07031,1.39843 13.999997,13.999999 0 0 1 -0.20899,1.38282 13.999997,13.999999 0 0 1 -0.3457,1.35546 13.999997,13.999999 0 0 1 -0.48047,1.314459 13.999997,13.999999 0 0 1 -0.60742,1.25976 13.999997,13.999999 0 0 1 -0.73242,1.19336 13.999997,13.999999 0 0 1 -0.84766,1.11524 13.999997,13.999999 0 0 1 -0.9531194,1.02344 13.999997,13.999999 0 0 1 -1.0507898,0.92382 13.999997,13.999999 0 0 1 -1.1386699,0.81446 13.999997,13.999999 0 0 1 -1.2148398,0.69531 13.999997,13.999999 0 0 1 -1.2773398,0.57226 13.999997,13.999999 0 0 1 -1.3281298,0.44141 13.999997,13.999999 0 0 1 -1.3652298,0.30664 13.999997,13.999999 0 0 1 -1.38867984,0.16797 A 13.999997,13.999999 0 0 1 0,34.999997 l 0,34.999992 41.999994,0 0,-34.999992 a 13.999999,14 0 0 1 -1.39844,-0.07032 13.999999,14 0 0 1 -1.38281,-0.20898 13.999999,14 0 0 1 -1.355469,-0.3457 13.999999,14 0 0 1 -1.31445,-0.48047 13.999999,14 0 0 1 -1.26172,-0.60938 13.999999,14 0 0 1 -1.19141,-0.73047 13.999999,14 0 0 1 -1.11523,-0.84765 13.999999,14 0 0 1 -1.02344,-0.95313 13.999999,14 0 0 1 -0.923829,-1.05078 13.999999,14 0 0 1 -0.81445,-1.13867 13.999999,14 0 0 1 -0.69531,-1.21484 13.999999,14 0 0 1 -0.57227,-1.27735 13.999999,14 0 0 1 -0.4414,-1.328119 13.999999,14 0 0 1 -0.30665,-1.36524 13.999999,14 0 0 1 -0.16796,-1.38867 13.999999,14 0 0 1 -0.03516,-0.99023 13.999999,14 0 0 1 0.07031,-1.39844 13.999999,14 0 0 1 0.20899,-1.38281 13.999999,14 0 0 1 0.3457,-1.35547 13.999999,14 0 0 1 0.48047,-1.31446 13.999999,14 0 0 1 0.60742,-1.261709 13.999999,14 0 0 1 0.73242,-1.19141 13.999999,14 0 0 1 0.84766,-1.11523 13.999999,14 0 0 1 0.953119,-1.02344 13.999999,14 0 0 1 1.05079,-0.92383 13.999999,14 0 0 1 1.13867,-0.8144499 13.999999,14 0 0 1 1.21484,-0.6953199 13.999999,14 0 0 1 1.27734,-0.57226 13.999999,14 0 0 1 1.32813,-0.4414099 13.999999,14 0 0 1 1.365229,-0.30664 13.999999,14 0 0 1 1.38868,-0.16797 13.999999,14 0 0 1 0.99023,-0.03515 L 41.999994,0 0,0 Z"
         id="path19451" />
      <circle
         r="14.000001"
         style="opacity:1;fill:#008080;fill-opacity:1;fill-rule:nonzero;stroke:none;stroke-width:2;stroke-linecap:round;stroke-linejoin:round;stroke-miterlimit:4;stroke-dasharray:6.00000011, 2.00000002;stroke-dashoffset:0;stroke-opacity:1"
         id="circle19453"
         cx="21.000109"
         cy="55.999813" />
      <path
         inkscape:connector-curvature="0"
         style="opacity:1;fill:#008080;fill-opacity:1;fill-rule:nonzero;stroke:none;stroke-width:2;stroke-linecap:round;stroke-linejoin:round;stroke-miterlimit:4;stroke-dasharray:6, 2;stroke-dashoffset:0;stroke-opacity:1"
         d="m 0,34.999997 a 13.999999,14 0 0 0 0.99022986,-0.03516 13.999999,14 0 0 0 1.38867984,-0.16797 13.999999,14 0 0 0 1.3652298,-0.30664 13.999999,14 0 0 0 1.3281298,-0.44141 13.999999,14 0 0 0 1.2773398,-0.57226 13.999999,14 0 0 0 1.2148398,-0.69531 13.999999,14 0 0 0 1.1386699,-0.81446 13.999999,14 0 0 0 1.0507898,-0.92382 13.999999,14 0 0 0 0.9531194,-1.02344 13.999999,14 0 0 0 0.84766,-1.11524 13.999999,14 0 0 0 0.73242,-1.19336 13.999999,14 0 0 0 0.60742,-1.25976 13.999999,14 0 0 0 0.48047,-1.314459 13.999999,14 0 0 0 0.3457,-1.35546 13.999999,14 0 0 0 0.20899,-1.38282 13.999999,14 0 0 0 0.07031,-1.39843 13.999999,14 0 0 0 -0.03516,-0.99024 13.999999,14 0 0 0 -0.16796,-1.38867 13.999999,14 0 0 0 -0.30665,-1.36719 13.999999,14 0 0 0 -0.4414,-1.32617 13.999999,14 0 0 0 -0.57227,-1.277339 13.999999,14 0 0 0 -0.69531,-1.21485 13.999999,14 0 0 0 -0.81445,-1.13867 13.999999,14 0 0 0 -0.923829,-1.05078 A 13.999999,14 0 0 0 9.0195287,10.292969 13.999999,14 0 0 0 7.9042989,9.4453091 13.999999,14 0 0 0 6.712889,8.7128891 13.999999,14 0 0 0 5.4511692,8.1054692 13.999999,14 0 0 0 4.1367194,7.6249992 13.999999,14 0 0 0 2.7812496,7.2792893 13.999999,14 0 0 0 1.3984398,7.0703093 13.999999,14 0 0 0 0,6.9999993 L 0,34.999997 Z"
         id="path19455" />
    </pattern>
    <pattern
       inkscape:collect="always"
       xlink:href="#pattern14012"
       id="pattern19459"
       patternTransform="translate(-162.37544,-44.299377)" />
    <pattern
       inkscape:collect="always"
       xlink:href="#pattern13234"
       id="pattern19461"
       patternTransform="translate(-162.37544,275.2245)" />
    <pattern
       inkscape:collect="always"
       xlink:href="#pattern13228"
       id="pattern19463"
       patternTransform="translate(-162.37544,-190.80306)" />
    <pattern
       inkscape:collect="always"
       xlink:href="#pattern13172"
       id="pattern19465"
       patternTransform="translate(-123.2636,-190.80306)" />
    <pattern
       inkscape:collect="always"
       xlink:href="#pattern13160"
       id="pattern19467"
       patternTransform="translate(83.565131,-190.80306)" />
    <pattern
       inkscape:collect="always"
       xlink:href="#pattern12937"
       id="pattern19469"
       patternTransform="translate(-216.73428,-345.92461)" />
    <pattern
       patternTransform="translate(129.23747,329.20085)"
       id="pattern19471"
       xlink:href="#pattern11271"
       inkscape:collect="always" />
    <pattern
       inkscape:collect="always"
       xlink:href="#pattern10729"
       id="pattern19473"
       patternTransform="translate(-108.74521,-817.75025)" />
    <pattern
       inkscape:collect="always"
       xlink:href="#pattern10723"
       id="pattern19475"
       patternTransform="translate(-315.93271,299.74975)" />
    <pattern
       inkscape:collect="always"
       xlink:href="#pattern10621"
       id="pattern19477"
       patternTransform="translate(-256.87021,291.781)" />
    <pattern
       patternTransform="translate(130.85338,329.2008)"
       id="pattern19479"
       xlink:href="#pattern10938-758-124-313-1-6"
       inkscape:collect="always" />
    <pattern
       id="pattern19483"
       patternTransform="translate(105.32577,298.98598)"
       height="22.497425"
       width="13.498456"
       patternUnits="userSpaceOnUse">
      <rect
         style="fill:url(#pattern10936-906-732-194-9-9);stroke:none"
         width="13.498456"
         height="22.497425"
         x="2.7339242e-015"
         y="-2.8144154e-014"
         id="rect19481" />
    </pattern>
    <pattern
       patternTransform="matrix(0.3213918,0,0,0.32139182,2.4829098e-6,-1.2431639e-5)"
       id="pattern19485"
       xlink:href="#pattern10926-828-791-730-3-2"
       inkscape:collect="always" />
    <pattern
       id="pattern19495"
       patternTransform="translate(105.32577,298.98598)"
       height="69.999989"
       width="41.999994"
       patternUnits="userSpaceOnUse">
      <path
         inkscape:connector-curvature="0"
         style="opacity:1;fill:#008080;fill-opacity:1;fill-rule:nonzero;stroke:none;stroke-width:2;stroke-linecap:round;stroke-linejoin:round;stroke-miterlimit:4;stroke-dasharray:6, 2;stroke-dashoffset:0;stroke-opacity:1"
         d="m 41.999994,6.9999993 a 13.999999,14 0 0 0 -0.99023,0.03515 13.999999,14 0 0 0 -1.38868,0.16797 13.999999,14 0 0 0 -1.365229,0.30664 13.999999,14 0 0 0 -1.32813,0.4414099 13.999999,14 0 0 0 -1.27734,0.57226 13.999999,14 0 0 0 -1.21484,0.6953199 13.999999,14 0 0 0 -1.13867,0.8144499 13.999999,14 0 0 0 -1.05079,0.92383 13.999999,14 0 0 0 -0.953119,1.02344 13.999999,14 0 0 0 -0.84766,1.11523 13.999999,14 0 0 0 -0.73242,1.19141 13.999999,14 0 0 0 -0.60742,1.261709 13.999999,14 0 0 0 -0.48047,1.31446 13.999999,14 0 0 0 -0.3457,1.35547 13.999999,14 0 0 0 -0.20899,1.38281 13.999999,14 0 0 0 -0.07031,1.39844 13.999999,14 0 0 0 0.03516,0.99023 13.999999,14 0 0 0 0.16796,1.38867 13.999999,14 0 0 0 0.30665,1.36524 13.999999,14 0 0 0 0.4414,1.328119 13.999999,14 0 0 0 0.57227,1.27735 13.999999,14 0 0 0 0.69531,1.21484 13.999999,14 0 0 0 0.81445,1.13867 13.999999,14 0 0 0 0.923829,1.05078 13.999999,14 0 0 0 1.02344,0.95313 13.999999,14 0 0 0 1.11523,0.84765 13.999999,14 0 0 0 1.19141,0.73047 13.999999,14 0 0 0 1.26172,0.60938 13.999999,14 0 0 0 1.31445,0.48047 13.999999,14 0 0 0 1.355469,0.3457 13.999999,14 0 0 0 1.38281,0.20898 13.999999,14 0 0 0 1.39844,0.07032 l 0,-27.9999977 z"
         id="path19487" />
      <path
         inkscape:connector-curvature="0"
         style="opacity:1;fill:#de87aa;fill-opacity:1;fill-rule:nonzero;stroke:none;stroke-width:2;stroke-linecap:round;stroke-linejoin:round;stroke-miterlimit:4;stroke-dasharray:6, 2;stroke-dashoffset:0;stroke-opacity:1"
         d="m 0,0 0,6.9999993 a 13.999997,13.999999 0 0 1 1.3984398,0.07031 13.999997,13.999999 0 0 1 1.3828098,0.20898 13.999997,13.999999 0 0 1 1.3554698,0.3457099 13.999997,13.999999 0 0 1 1.3144498,0.48047 13.999997,13.999999 0 0 1 1.2617198,0.6074199 13.999997,13.999999 0 0 1 1.1914099,0.73242 13.999997,13.999999 0 0 1 1.1152298,0.8476599 13.999997,13.999999 0 0 1 1.0234403,0.95312 13.999997,13.999999 0 0 1 0.923829,1.05078 13.999997,13.999999 0 0 1 0.81445,1.13867 13.999997,13.999999 0 0 1 0.69531,1.21485 13.999997,13.999999 0 0 1 0.57227,1.277339 13.999997,13.999999 0 0 1 0.4414,1.32617 13.999997,13.999999 0 0 1 0.30665,1.36719 13.999997,13.999999 0 0 1 0.16796,1.38867 13.999997,13.999999 0 0 1 0.03516,0.99024 13.999997,13.999999 0 0 1 -0.07031,1.39843 13.999997,13.999999 0 0 1 -0.20899,1.38282 13.999997,13.999999 0 0 1 -0.3457,1.35546 13.999997,13.999999 0 0 1 -0.48047,1.314459 13.999997,13.999999 0 0 1 -0.60742,1.25976 13.999997,13.999999 0 0 1 -0.73242,1.19336 13.999997,13.999999 0 0 1 -0.84766,1.11524 13.999997,13.999999 0 0 1 -0.9531194,1.02344 13.999997,13.999999 0 0 1 -1.0507898,0.92382 13.999997,13.999999 0 0 1 -1.1386699,0.81446 13.999997,13.999999 0 0 1 -1.2148398,0.69531 13.999997,13.999999 0 0 1 -1.2773398,0.57226 13.999997,13.999999 0 0 1 -1.3281298,0.44141 13.999997,13.999999 0 0 1 -1.3652298,0.30664 13.999997,13.999999 0 0 1 -1.38867984,0.16797 A 13.999997,13.999999 0 0 1 0,34.999997 l 0,34.999992 41.999994,0 0,-34.999992 a 13.999999,14 0 0 1 -1.39844,-0.07032 13.999999,14 0 0 1 -1.38281,-0.20898 13.999999,14 0 0 1 -1.355469,-0.3457 13.999999,14 0 0 1 -1.31445,-0.48047 13.999999,14 0 0 1 -1.26172,-0.60938 13.999999,14 0 0 1 -1.19141,-0.73047 13.999999,14 0 0 1 -1.11523,-0.84765 13.999999,14 0 0 1 -1.02344,-0.95313 13.999999,14 0 0 1 -0.923829,-1.05078 13.999999,14 0 0 1 -0.81445,-1.13867 13.999999,14 0 0 1 -0.69531,-1.21484 13.999999,14 0 0 1 -0.57227,-1.27735 13.999999,14 0 0 1 -0.4414,-1.328119 13.999999,14 0 0 1 -0.30665,-1.36524 13.999999,14 0 0 1 -0.16796,-1.38867 13.999999,14 0 0 1 -0.03516,-0.99023 13.999999,14 0 0 1 0.07031,-1.39844 13.999999,14 0 0 1 0.20899,-1.38281 13.999999,14 0 0 1 0.3457,-1.35547 13.999999,14 0 0 1 0.48047,-1.31446 13.999999,14 0 0 1 0.60742,-1.261709 13.999999,14 0 0 1 0.73242,-1.19141 13.999999,14 0 0 1 0.84766,-1.11523 13.999999,14 0 0 1 0.953119,-1.02344 13.999999,14 0 0 1 1.05079,-0.92383 13.999999,14 0 0 1 1.13867,-0.8144499 13.999999,14 0 0 1 1.21484,-0.6953199 13.999999,14 0 0 1 1.27734,-0.57226 13.999999,14 0 0 1 1.32813,-0.4414099 13.999999,14 0 0 1 1.365229,-0.30664 13.999999,14 0 0 1 1.38868,-0.16797 13.999999,14 0 0 1 0.99023,-0.03515 L 41.999994,0 0,0 Z"
         id="path19489" />
      <circle
         r="14.000001"
         style="opacity:1;fill:#008080;fill-opacity:1;fill-rule:nonzero;stroke:none;stroke-width:2;stroke-linecap:round;stroke-linejoin:round;stroke-miterlimit:4;stroke-dasharray:6.00000011, 2.00000002;stroke-dashoffset:0;stroke-opacity:1"
         id="circle19491"
         cx="21.000109"
         cy="55.999813" />
      <path
         inkscape:connector-curvature="0"
         style="opacity:1;fill:#008080;fill-opacity:1;fill-rule:nonzero;stroke:none;stroke-width:2;stroke-linecap:round;stroke-linejoin:round;stroke-miterlimit:4;stroke-dasharray:6, 2;stroke-dashoffset:0;stroke-opacity:1"
         d="m 0,34.999997 a 13.999999,14 0 0 0 0.99022986,-0.03516 13.999999,14 0 0 0 1.38867984,-0.16797 13.999999,14 0 0 0 1.3652298,-0.30664 13.999999,14 0 0 0 1.3281298,-0.44141 13.999999,14 0 0 0 1.2773398,-0.57226 13.999999,14 0 0 0 1.2148398,-0.69531 13.999999,14 0 0 0 1.1386699,-0.81446 13.999999,14 0 0 0 1.0507898,-0.92382 13.999999,14 0 0 0 0.9531194,-1.02344 13.999999,14 0 0 0 0.84766,-1.11524 13.999999,14 0 0 0 0.73242,-1.19336 13.999999,14 0 0 0 0.60742,-1.25976 13.999999,14 0 0 0 0.48047,-1.314459 13.999999,14 0 0 0 0.3457,-1.35546 13.999999,14 0 0 0 0.20899,-1.38282 13.999999,14 0 0 0 0.07031,-1.39843 13.999999,14 0 0 0 -0.03516,-0.99024 13.999999,14 0 0 0 -0.16796,-1.38867 13.999999,14 0 0 0 -0.30665,-1.36719 13.999999,14 0 0 0 -0.4414,-1.32617 13.999999,14 0 0 0 -0.57227,-1.277339 13.999999,14 0 0 0 -0.69531,-1.21485 13.999999,14 0 0 0 -0.81445,-1.13867 13.999999,14 0 0 0 -0.923829,-1.05078 A 13.999999,14 0 0 0 9.0195287,10.292969 13.999999,14 0 0 0 7.9042989,9.4453091 13.999999,14 0 0 0 6.712889,8.7128891 13.999999,14 0 0 0 5.4511692,8.1054692 13.999999,14 0 0 0 4.1367194,7.6249992 13.999999,14 0 0 0 2.7812496,7.2792893 13.999999,14 0 0 0 1.3984398,7.0703093 13.999999,14 0 0 0 0,6.9999993 L 0,34.999997 Z"
         id="path19493" />
    </pattern>
  </defs>
  <sodipodi:namedview
     id="base"
     pagecolor="#ffffff"
     bordercolor="#666666"
     borderopacity="1.0"
     inkscape:pageopacity="0.0"
     inkscape:pageshadow="2"
     inkscape:zoom="1.4142136"
     inkscape:cx="-48.821193"
     inkscape:cy="58.837303"
     inkscape:document-units="mm"
     inkscape:current-layer="layer1"
     showgrid="false"
     units="px"
     fit-margin-top="1"
     fit-margin-left="1"
     fit-margin-right="1"
     fit-margin-bottom="1"
     inkscape:window-width="958"
     inkscape:window-height="1049"
     inkscape:window-x="0"
     inkscape:window-y="0"
     inkscape:window-maximized="0" />
  <metadata
     id="metadata6689">
    <rdf:RDF>
      <cc:Work
         rdf:about="">
        <dc:format>image/svg+xml</dc:format>
        <dc:type
           rdf:resource="http://purl.org/dc/dcmitype/StillImage" />
        <dc:title></dc:title>
      </cc:Work>
    </rdf:RDF>
  </metadata>
  <g
     inkscape:label="Layer 1"
     inkscape:groupmode="layer"
     id="layer1"
     transform="translate(-245.36439,-343.10822)">
    <rect
       style="display:inline;opacity:1;fill:#afc6e9;fill-opacity:1;stroke:#000000;stroke-width:0.7055555;stroke-linecap:round;stroke-linejoin:round;stroke-miterlimit:4;stroke-dasharray:none;stroke-dashoffset:0;stroke-opacity:1"
       id="rect19944"
       width="13.715592"
       height="8.2650795"
       x="245.98175"
       y="343.72559"
       ry="4.1325397" />
    <path
       inkscape:connector-curvature="0"
       id="path19946"
       d="m 245.99926,347.67664 c -0.009,0.11328 -0.0176,0.22712 -0.0176,0.34286 0,2.28943 1.84303,4.13246 4.13245,4.13246 h 5.45042 c 2.28943,0 4.13302,-1.84303 4.13302,-4.13246 0,-0.11574 -0.008,-0.22958 -0.0176,-0.34286 z"
       style="display:inline;opacity:1;fill:#800080;fill-opacity:1;stroke:none;stroke-width:0.7055555;stroke-linecap:round;stroke-linejoin:round;stroke-miterlimit:4;stroke-dasharray:none;stroke-dashoffset:0;stroke-opacity:1" />
    <rect
       ry="4.1325397"
       y="343.72559"
       x="245.98175"
       height="8.2650795"
       width="13.715592"
       id="rect19948"
       style="display:inline;opacity:1;fill:none;fill-opacity:1;stroke:#000000;stroke-width:0.7055555;stroke-linecap:round;stroke-linejoin:round;stroke-miterlimit:4;stroke-dasharray:none;stroke-dashoffset:0;stroke-opacity:1" />
    <g
       id="g19959"
       transform="matrix(0.2253805,0,0,0.22169274,197.44275,238.56775)"
       style="display:inline;stroke-width:1.26257539">
      <path
         style="display:inline;opacity:1;fill:#800080;fill-opacity:1;stroke:none;stroke-width:3.15643811;stroke-linecap:round;stroke-linejoin:round;stroke-miterlimit:4;stroke-dasharray:none;stroke-dashoffset:0;stroke-opacity:1"
         d="m 221.52409,485.33833 c -0.0328,0.40139 -0.0625,0.80474 -0.0625,1.21485 0,8.11214 6.53043,14.64258 14.64257,14.64258 h 19.3125 c 8.11215,0 14.64454,-6.53044 14.64454,-14.64258 0,-0.41011 -0.0298,-0.81346 -0.0625,-1.21485 z"
         id="path19928"
         inkscape:connector-curvature="0" />
      <rect
         y="485.33832"
         x="221.52409"
         height="15.285881"
         width="48.536552"
         id="rect19936"
         style="fill:#e3dbdb;fill-opacity:1;stroke:#ffffff;stroke-width:2.36732888;stroke-linecap:round;stroke-miterlimit:4;stroke-dasharray:none;stroke-dashoffset:0" />
      <rect
         style="fill:#ff00ff;fill-opacity:1;stroke:#ffffff;stroke-width:2.36732888;stroke-linecap:round;stroke-miterlimit:4;stroke-dasharray:none;stroke-dashoffset:0"
         id="rect19938"
         width="18.042564"
         height="15.285889"
         x="252.01808"
         y="485.33832" />
      <text
         id="text19942"
         y="500.30219"
         x="255.84065"
         style="font-style:normal;font-weight:normal;font-size:19.63624954px;line-height:1.25;font-family:sans-serif;letter-spacing:0px;word-spacing:0px;fill:#000000;fill-opacity:1;stroke:none;stroke-width:1.18366444"
         xml:space="preserve"><tspan
           style="stroke-width:1.18366444"
           y="500.30219"
           x="255.84065"
           id="tspan19940"
           sodipodi:role="line">?</tspan></text>
    </g>
  </g>
</svg>
