<?xml version="1.0" encoding="UTF-8" standalone="no"?>
<!-- Created with Inkscape (http://www.inkscape.org/) -->

<svg
   xmlns:dc="http://purl.org/dc/elements/1.1/"
   xmlns:cc="http://creativecommons.org/ns#"
   xmlns:rdf="http://www.w3.org/1999/02/22-rdf-syntax-ns#"
   xmlns:svg="http://www.w3.org/2000/svg"
   xmlns="http://www.w3.org/2000/svg"
   xmlns:sodipodi="http://sodipodi.sourceforge.net/DTD/sodipodi-0.dtd"
   xmlns:inkscape="http://www.inkscape.org/namespaces/inkscape"
   width="42.333092mm"
   height="58.497913mm"
   viewBox="0 0 42.333093 58.497913"
   version="1.1"
   id="svg3843"
   inkscape:version="0.92.3 (2405546, 2018-03-11)"
   sodipodi:docname="ProcessorProc.svg">
  <defs
     id="defs3837" />
  <sodipodi:namedview
     id="base"
     pagecolor="#ffffff"
     bordercolor="#666666"
     borderopacity="1.0"
     inkscape:pageopacity="0.0"
     inkscape:pageshadow="2"
     inkscape:zoom="1.1976562"
     inkscape:cx="-189.63111"
     inkscape:cy="124.03358"
     inkscape:document-units="mm"
     inkscape:current-layer="layer1"
     showgrid="false"
     fit-margin-top="1"
     fit-margin-left="1"
     fit-margin-right="1"
     fit-margin-bottom="1"
     inkscape:window-width="1920"
     inkscape:window-height="1052"
     inkscape:window-x="0"
     inkscape:window-y="0"
     inkscape:window-maximized="1" />
  <metadata
     id="metadata3840">
    <rdf:RDF>
      <cc:Work
         rdf:about="">
        <dc:format>image/svg+xml</dc:format>
        <dc:type
           rdf:resource="http://purl.org/dc/dcmitype/StillImage" />
        <dc:title></dc:title>
      </cc:Work>
    </rdf:RDF>
  </metadata>
  <g
     inkscape:label="Layer 1"
     inkscape:groupmode="layer"
     id="layer1"
     transform="translate(-114.69498,-123.15265)">
    <flowRoot
       xml:space="preserve"
       id="flowRoot3947"
       style="font-style:normal;font-weight:normal;font-size:40px;line-height:1.25;font-family:sans-serif;letter-spacing:0px;word-spacing:0px;fill:#000000;fill-opacity:1;stroke:none"
       transform="scale(0.26458333)"><flowRegion
         id="flowRegion3949"><rect
           id="rect3951"
           width="96.855835"
           height="157.80821"
           x="229.61513"
           y="442.85889" /></flowRegion><flowPara
         id="flowPara3953"></flowPara></flowRoot>    <path
       style="display:inline;fill:none;fill-rule:evenodd;stroke:#000000;stroke-width:0.25212362px;stroke-linecap:butt;stroke-linejoin:miter;stroke-opacity:1"
       d="M 136.2067,153.02715 V 141.19603"
       id="path38846"
       inkscape:connector-curvature="0" />
    <path
       style="display:inline;fill:#f9f9f9;fill-opacity:1;stroke:#0b2822;stroke-width:0.34662968;stroke-linecap:butt;stroke-linejoin:round;stroke-miterlimit:4;stroke-dasharray:none;stroke-dashoffset:0;stroke-opacity:1"
       d="m 134.74919,124.32597 a 4.2893231,4.2893231 0 0 0 -4.22658,3.5868 4.2893231,4.2893231 0 0 0 -0.85067,-0.0853 4.2893231,4.2893231 0 0 0 -4.2892,4.28921 4.2893231,4.2893231 0 0 0 0.97083,2.71379 4.2893231,4.2893231 0 0 0 -0.97083,2.7138 4.2893231,4.2893231 0 0 0 4.2892,4.28918 4.2893231,4.2893231 0 0 0 4.13925,-3.18496 4.2893231,4.2893231 0 0 0 4.08914,3.00996 4.2893231,4.2893231 0 0 0 2.42641,-0.75249 4.4643977,4.4643977 0 0 0 2.47583,0.75249 4.4643977,4.4643977 0 0 0 4.46421,-4.46453 4.4643977,4.4643977 0 0 0 -1.23012,-3.07431 4.2893231,4.2893231 0 0 0 0.7051,-2.35297 4.2893231,4.2893231 0 0 0 -4.28954,-4.28918 4.2893231,4.2893231 0 0 0 -3.46596,1.7697 4.2893231,4.2893231 0 0 0 0.0521,-0.63201 4.2893231,4.2893231 0 0 0 -4.2892,-4.28919 z"
       id="path38830"
       inkscape:connector-curvature="0" />
    <g
       style="display:inline"
       id="g38818"
       transform="matrix(0.17331482,0,0,0.17331482,-15.21388,-48.362062)">
      <g
         id="g38775"
         transform="matrix(0.46790756,0,0,0.46790756,760.04972,848.41123)"
         style="fill:#ffd5d5;fill-opacity:1">
        <rect
           transform="rotate(90)"
           y="-265.01492"
           x="408.33929"
           height="92.85714"
           width="48.0457"
           id="rect38777"
           style="color:#000000;display:inline;overflow:visible;visibility:visible;fill:#ffd5d5;fill-opacity:1;fill-rule:nonzero;stroke:#0b280b;stroke-width:3;stroke-miterlimit:4;stroke-dasharray:none;stroke-dashoffset:0;marker:none;enable-background:accumulate" />
        <rect
           transform="rotate(90)"
           style="color:#000000;display:inline;overflow:visible;visibility:visible;fill:#ffd5d5;fill-opacity:1;fill-rule:nonzero;stroke:#0b280b;stroke-width:3;stroke-miterlimit:4;stroke-dasharray:none;stroke-dashoffset:0;marker:none;enable-background:accumulate"
           id="rect38779"
           width="56.907108"
           height="27.197224"
           x="403.9086"
           y="-182.18239" />
      </g>
      <rect
         transform="matrix(0,1,1,0,0,0)"
         y="860.05865"
         x="1039.4762"
         height="43.448555"
         width="22.480947"
         id="rect38781"
         style="color:#000000;display:inline;overflow:visible;visibility:visible;fill:#afe9dd;fill-opacity:1;fill-rule:nonzero;stroke:#0b280b;stroke-width:1.40372264;stroke-miterlimit:4;stroke-dasharray:none;stroke-dashoffset:0;marker:none;enable-background:accumulate" />
      <rect
         transform="matrix(0,1,1,0,0,0)"
         style="color:#000000;display:inline;overflow:visible;visibility:visible;fill:#afe9dd;fill-opacity:1;fill-rule:nonzero;stroke:#0b280b;stroke-width:1.40372264;stroke-miterlimit:4;stroke-dasharray:none;stroke-dashoffset:0;marker:none;enable-background:accumulate"
         id="rect38783"
         width="26.627266"
         height="12.725787"
         x="1037.4031"
         y="898.81659" />
      <path
         inkscape:connector-curvature="0"
         id="path38785"
         d="m 853.84734,1030.2582 v 41.4427 h 4.16986 29.10771 3.4866 v -41.4427 h -3.4866 -29.10771 z"
         style="color:#000000;display:inline;overflow:visible;visibility:visible;fill:#93ac93;fill-opacity:1;fill-rule:nonzero;stroke:#0b280b;stroke-width:1.40372264;stroke-miterlimit:4;stroke-dasharray:none;stroke-dashoffset:0;marker:none;enable-background:accumulate" />
      <path
         sodipodi:type="star"
         style="opacity:1;fill:#00ff00;fill-opacity:1;stroke:#000000;stroke-width:7.47155905;stroke-linecap:round;stroke-linejoin:round;stroke-miterlimit:4;stroke-dasharray:none;stroke-dashoffset:0;stroke-opacity:1"
         id="path38787"
         sodipodi:sides="3"
         sodipodi:cx="33.57143"
         sodipodi:cy="365.2193"
         sodipodi:r1="27.19919"
         sodipodi:r2="13.599595"
         sodipodi:arg1="0.52359878"
         sodipodi:arg2="1.5707963"
         inkscape:flatsided="true"
         inkscape:rounded="0"
         inkscape:randomized="0"
         d="m 57.12662,378.81889 -47.110379,0 23.555189,-40.79878 z"
         transform="matrix(0,0.09190676,-0.17069083,0,966.69696,1047.6313)"
         inkscape:transform-center-x="-2.063677" />
      <path
         inkscape:transform-center-x="-2.0636753"
         transform="matrix(0,0.09190676,-0.17069083,0,900.92254,1047.6313)"
         d="m 57.12662,378.81889 -47.110379,0 23.555189,-40.79878 z"
         inkscape:randomized="0"
         inkscape:rounded="0"
         inkscape:flatsided="true"
         sodipodi:arg2="1.5707963"
         sodipodi:arg1="0.52359878"
         sodipodi:r2="13.599595"
         sodipodi:r1="27.19919"
         sodipodi:cy="365.2193"
         sodipodi:cx="33.57143"
         sodipodi:sides="3"
         id="path38789"
         style="opacity:1;fill:#ff0000;fill-opacity:1;stroke:#000000;stroke-width:7.47155905;stroke-linecap:round;stroke-linejoin:round;stroke-miterlimit:4;stroke-dasharray:none;stroke-dashoffset:0;stroke-opacity:1"
         sodipodi:type="star" />
      <text
         id="text38814"
         y="1063.6073"
         x="858.65442"
         style="font-style:normal;font-weight:normal;line-height:0%;font-family:sans-serif;letter-spacing:0px;word-spacing:0px;fill:#d5fff6;fill-opacity:1;stroke:#0b2822;stroke-width:1px;stroke-linecap:butt;stroke-linejoin:miter;stroke-opacity:1"
         xml:space="preserve"><tspan
           style="font-weight:bold;font-size:34.64373016px;line-height:1.25;fill:#d5fff6;stroke:#0b2822"
           y="1063.6073"
           x="858.65442"
           id="tspan38816"
           sodipodi:role="line">P</tspan></text>
    </g>
    <g
       id="g7370"
       transform="matrix(0.28222223,0,0,0.28222223,102.2078,-33.158165)"
       style="display:inline;fill:#ffd5d5;fill-opacity:1">
      <rect
         style="color:#000000;display:inline;overflow:visible;visibility:visible;fill:#ffd5d5;fill-opacity:1;fill-rule:nonzero;stroke:#0b280b;stroke-width:2.49583793;stroke-miterlimit:4;stroke-dasharray:none;stroke-dashoffset:0;marker:none;enable-background:accumulate"
         id="rect7372"
         width="39.971428"
         height="77.252121"
         x="687.36249"
         y="-140.57593"
         transform="rotate(90)" />
      <rect
         y="-71.663742"
         x="683.67639"
         height="22.626621"
         width="47.343639"
         id="rect7374"
         style="color:#000000;display:inline;overflow:visible;visibility:visible;fill:#ffd5d5;fill-opacity:1;fill-rule:nonzero;stroke:#0b280b;stroke-width:2.49583793;stroke-miterlimit:4;stroke-dasharray:none;stroke-dashoffset:0;marker:none;enable-background:accumulate"
         transform="rotate(90)" />
    </g>
    <g
       id="g7376"
       transform="matrix(0.28222223,0,0,0.28222223,102.2078,-33.158165)"
       style="display:inline;fill:#afe9dd;fill-opacity:1">
      <rect
         transform="matrix(0,1,1,0,0,0)"
         y="97.915009"
         x="687.36249"
         height="77.252121"
         width="39.971428"
         id="rect7378"
         style="color:#000000;display:inline;overflow:visible;visibility:visible;fill:#afe9dd;fill-opacity:1;fill-rule:nonzero;stroke:#0b280b;stroke-width:2.49583793;stroke-miterlimit:4;stroke-dasharray:none;stroke-dashoffset:0;marker:none;enable-background:accumulate" />
      <rect
         transform="matrix(0,1,1,0,0,0)"
         style="color:#000000;display:inline;overflow:visible;visibility:visible;fill:#afe9dd;fill-opacity:1;fill-rule:nonzero;stroke:#0b280b;stroke-width:2.49583793;stroke-miterlimit:4;stroke-dasharray:none;stroke-dashoffset:0;marker:none;enable-background:accumulate"
         id="rect7380"
         width="47.343639"
         height="22.626621"
         x="683.67639"
         y="166.82719" />
    </g>
    <path
       inkscape:transform-center-x="-2.063677"
       transform="matrix(0,0.04611835,-0.0856518,0,183.1823,164.92296)"
       d="m 57.12662,378.81889 -47.110379,0 23.555189,-40.79878 z"
       inkscape:randomized="0"
       inkscape:rounded="0"
       inkscape:flatsided="true"
       sodipodi:arg2="1.5707963"
       sodipodi:arg1="0.52359878"
       sodipodi:r2="13.599595"
       sodipodi:r1="27.19919"
       sodipodi:cy="365.2193"
       sodipodi:cx="33.57143"
       sodipodi:sides="3"
       id="path7382"
       style="display:inline;opacity:1;fill:#00ff00;fill-opacity:1;stroke:#000000;stroke-width:7.47155905;stroke-linecap:round;stroke-linejoin:round;stroke-miterlimit:4;stroke-dasharray:none;stroke-dashoffset:0;stroke-opacity:1"
       sodipodi:type="star" />
    <path
       sodipodi:type="star"
       style="display:inline;opacity:1;fill:#ff0000;fill-opacity:1;stroke:#000000;stroke-width:7.47155905;stroke-linecap:round;stroke-linejoin:round;stroke-miterlimit:4;stroke-dasharray:none;stroke-dashoffset:0;stroke-opacity:1"
       id="path7384"
       sodipodi:sides="3"
       sodipodi:cx="33.57143"
       sodipodi:cy="365.2193"
       sodipodi:r1="27.19919"
       sodipodi:r2="13.599595"
       sodipodi:arg1="0.52359878"
       sodipodi:arg2="1.5707963"
       inkscape:flatsided="true"
       inkscape:rounded="0"
       inkscape:randomized="0"
       d="m 57.12662,378.81889 -47.110379,0 23.555189,-40.79878 z"
       transform="matrix(0,0.04611835,-0.0856518,0,149.93932,164.92296)"
       inkscape:transform-center-x="-2.0636753" />
    <path
       style="color:#000000;display:inline;overflow:visible;visibility:visible;fill:#93ac93;fill-opacity:1;fill-rule:nonzero;stroke:#0b280b;stroke-width:0.74457121;stroke-miterlimit:4;stroke-dasharray:none;stroke-dashoffset:0;marker:none;enable-background:accumulate"
       d="m 125.51523,156.11907 v 20.70431 h 2.34832 16.39246 1.96353 v -20.70431 h -1.96353 -16.39246 z"
       id="path7386"
       inkscape:connector-curvature="0" />
    <g
       style="display:inline"
       id="g7494"
       transform="matrix(0.28222223,0,0,0.28222223,-101.68232,-136.03093)">
      <rect
         style="fill:#e9afdd;fill-opacity:1;stroke:#000000;stroke-width:1.4960798;stroke-linecap:butt;stroke-linejoin:round;stroke-miterlimit:4;stroke-dasharray:none;stroke-dashoffset:0;stroke-opacity:1"
         id="rect38763"
         width="47.604969"
         height="24.180302"
         x="819.43433"
         y="1097.1714"
         ry="12.090151" />
      <text
         xml:space="preserve"
         style="font-style:normal;font-weight:normal;line-height:0%;font-family:sans-serif;letter-spacing:0px;word-spacing:0px;fill:#000000;fill-opacity:1;stroke:none;stroke-width:1px;stroke-linecap:butt;stroke-linejoin:miter;stroke-opacity:1"
         x="740.27045"
         y="1262.0978"
         id="text38765"
         transform="scale(1.1322024,0.88323431)"><tspan
           style="font-style:italic;font-size:19.72321129px;line-height:1.25"
           sodipodi:role="line"
           id="tspan38767"
           x="740.27045"
           y="1262.0978">f</tspan></text>
    </g>
    <circle
       style="display:inline;fill:#c8b7b7;fill-opacity:1;stroke:#241c1c;stroke-width:0.42333335;stroke-miterlimit:22.92558479;stroke-dasharray:none;stroke-dashoffset:0;stroke-opacity:1"
       id="circle38761"
       cx="136.14145"
       cy="155.96771"
       r="3.1988528" />
    <g
       style="display:inline"
       id="g38743"
       transform="matrix(0.21111349,0,0,0.21111349,31.075991,77.71247)">
      <path
         id="path38745"
         style="fill:#d2cb54;fill-opacity:1;fill-rule:evenodd;stroke:#231f20;stroke-width:1.5;stroke-linecap:round;stroke-linejoin:round;stroke-miterlimit:22.92558479;stroke-dasharray:none;stroke-opacity:1"
         d="m 501.39585,424.54811 c 0.91063,0 1.76466,0.24228 2.50132,0.66585 -1.47802,0.87454 -2.4696,2.48423 -2.4696,4.3252 0,1.86322 1.01565,3.48985 2.52338,4.3569 -0.74879,0.443 -1.62218,0.69765 -2.5551,0.69765 -2.77459,0 -5.02473,-2.2493 -5.02473,-5.02284 0,-2.77349 2.25014,-5.02276 5.02473,-5.02276 z"
         inkscape:connector-curvature="0" />
      <path
         id="path38747"
         style="fill:#d2cb54;fill-opacity:1;fill-rule:evenodd;stroke:#231f20;stroke-width:1.5;stroke-linecap:round;stroke-linejoin:round;stroke-miterlimit:22.92558479;stroke-dasharray:none;stroke-opacity:1"
         d="m 520.98393,422.92205 c 0.91063,0 1.76466,0.2855 2.50126,0.78458 -1.47796,1.03041 -2.46954,2.92698 -2.46954,5.09609 0,2.19528 1.01565,4.11187 2.52338,5.13346 -0.74879,0.52199 -1.62224,0.822 -2.5551,0.822 -2.77459,0 -5.02473,-2.65021 -5.02473,-5.91807 0,-3.26786 2.25014,-5.91806 5.02473,-5.91806 z"
         inkscape:connector-curvature="0" />
      <path
         id="path38749"
         style="fill:#f4e733;fill-opacity:1;fill-rule:evenodd;stroke:#231f20;stroke-width:1.5;stroke-linecap:round;stroke-linejoin:round;stroke-miterlimit:22.92558479;stroke-dasharray:none;stroke-opacity:1"
         d="m 523.32091,419.49355 -48.81132,-12.45426 v 26.90798 l 48.81132,12.45419 v -12.5257 l -0.0318,3.3e-4 c -2.77456,0 -5.02464,-2.24928 -5.02464,-5.02282 0,-2.77355 2.25008,-5.02276 5.02464,-5.02276 l 0.0318,3.2e-4 v -4.33742 z m -21.92506,5.05456 c 2.77456,0 5.02464,2.24927 5.02464,5.02276 0,2.77354 -2.25008,5.02284 -5.02464,5.02284 -2.77459,0 -5.02473,-2.2493 -5.02473,-5.02284 0,-2.77349 2.25014,-5.02276 5.02473,-5.02276 z m -15.23762,-9.71865 c 2.08961,0 3.7843,1.69412 3.7843,3.78295 0,2.08894 -1.69469,3.78302 -3.7843,3.78302 -2.08972,0 -3.78444,-1.69408 -3.78444,-3.78302 0,-2.08883 1.69472,-3.78295 3.78444,-3.78295 z"
         inkscape:connector-curvature="0" />
      <path
         id="path38751"
         style="fill:#d2cb54;fill-opacity:1;fill-rule:evenodd;stroke:#231f20;stroke-width:1.5;stroke-linecap:round;stroke-linejoin:round;stroke-miterlimit:22.92558479;stroke-dasharray:none;stroke-opacity:1"
         d="m 486.15823,414.82946 c 0.31107,0 0.61327,0.0378 0.90258,0.10862 -1.09091,0.92144 -1.78405,2.29881 -1.78405,3.83793 0,1.39645 0.57057,2.65988 1.4912,3.5703 -0.19852,0.0322 -0.4021,0.0491 -0.60973,0.0491 -2.08972,0 -3.78444,-1.69408 -3.78444,-3.78302 0,-2.08883 1.69472,-3.78295 3.78444,-3.78295 z"
         inkscape:connector-curvature="0" />
      <path
         id="path38753"
         style="fill:#fffa99;fill-opacity:1;fill-rule:evenodd;stroke:#231f20;stroke-width:1.5;stroke-linecap:round;stroke-linejoin:round;stroke-miterlimit:22.92558479;stroke-dasharray:none;stroke-opacity:1"
         d="m 474.50959,406.93647 48.81132,12.55708 -13.63846,-17.2211 c 0,0 -6.81927,-5.38159 -18.66318,-3.94651 -11.84391,1.43507 -16.86861,8.25179 -16.50968,8.61053 z m 13.11598,-3.97822 c 2.08966,0 3.78438,0.8979 3.78438,2.00493 0,1.10718 -1.69472,2.00506 -3.78438,2.00506 -2.08973,0 -3.78442,-0.89788 -3.78442,-2.00506 0,-1.10703 1.69469,-2.00493 3.78442,-2.00493 z m 21.89333,6.09912 c 2.08961,0 3.78436,0.65694 3.78436,1.46685 0,0.80993 -1.69475,1.46681 -3.78436,1.46681 -2.08972,0 -3.78443,-0.65688 -3.78443,-1.46681 0,-0.80991 1.69471,-1.46685 3.78443,-1.46685 z m -7.17814,-6.45792 c 2.08961,0 3.78438,0.8979 3.78438,2.00497 0,1.10715 -1.69477,2.00502 -3.78438,2.00502 -2.0897,0 -3.78442,-0.89787 -3.78442,-2.00502 0,-1.10707 1.69472,-2.00497 3.78442,-2.00497 z"
         inkscape:connector-curvature="0" />
      <path
         id="path38755"
         style="fill:#d2cb54;fill-opacity:1;fill-rule:evenodd;stroke:#231f20;stroke-width:1.5;stroke-linecap:round;stroke-linejoin:round;stroke-miterlimit:22.92558479;stroke-dasharray:none;stroke-opacity:1"
         d="m 502.34076,402.59945 c 2.08961,0 3.78438,0.8979 3.78438,2.00497 0,0.24038 -0.08,0.47091 -0.22644,0.68449 -0.55268,-0.20924 -1.15187,-0.32399 -1.77782,-0.32399 -1.36328,0 -2.59968,0.54327 -3.50497,1.42457 -1.22271,-0.33242 -2.05957,-1.0071 -2.05957,-1.78507 0,-1.10707 1.69472,-2.00497 3.78442,-2.00497 z"
         inkscape:connector-curvature="0" />
      <path
         id="path38757"
         style="fill:#d2cb54;fill-opacity:1;fill-rule:evenodd;stroke:#231f20;stroke-width:1.5;stroke-linecap:round;stroke-linejoin:round;stroke-miterlimit:22.92558479;stroke-dasharray:none;stroke-opacity:1"
         d="m 509.5189,409.05737 c 2.08961,0 3.78436,0.65694 3.78436,1.46685 0,0.44655 -0.51505,0.84634 -1.32734,1.11543 -0.76985,-0.47936 -1.67871,-0.75669 -2.6524,-0.75669 -0.9124,0 -1.76792,0.24335 -2.50558,0.66841 -0.67006,-0.2646 -1.08347,-0.62723 -1.08347,-1.02715 0,-0.80991 1.69471,-1.46685 3.78443,-1.46685 z"
         inkscape:connector-curvature="0" />
      <path
         id="path38759"
         style="fill:#d2cb54;fill-opacity:1;fill-rule:evenodd;stroke:#231f20;stroke-width:1.5;stroke-linecap:round;stroke-linejoin:round;stroke-miterlimit:22.92558479;stroke-dasharray:none;stroke-opacity:1"
         d="m 487.62557,402.95825 c 1.91104,0 3.4914,0.75089 3.74776,1.72604 -0.28804,-0.0513 -0.58443,-0.0781 -0.88708,-0.0781 -1.7435,0 -3.27966,0.88822 -4.18078,2.23647 -1.43899,-0.28386 -2.46432,-1.01828 -2.46432,-1.87951 0,-1.10703 1.69469,-2.00493 3.78442,-2.00493 z"
         inkscape:connector-curvature="0" />
    </g>
  </g>
</svg>
