<?xml version="1.0" encoding="UTF-8" standalone="no"?>
<!-- Created with Inkscape (http://www.inkscape.org/) -->

<svg
   xmlns:dc="http://purl.org/dc/elements/1.1/"
   xmlns:cc="http://creativecommons.org/ns#"
   xmlns:rdf="http://www.w3.org/1999/02/22-rdf-syntax-ns#"
   xmlns:svg="http://www.w3.org/2000/svg"
   xmlns="http://www.w3.org/2000/svg"
   xmlns:sodipodi="http://sodipodi.sourceforge.net/DTD/sodipodi-0.dtd"
   xmlns:inkscape="http://www.inkscape.org/namespaces/inkscape"
   width="17.411764mm"
   height="21.091265mm"
   viewBox="0 0 17.411765 21.091265"
   version="1.1"
   id="svg3843"
   inkscape:version="0.92.3 (2405546, 2018-03-11)"
   sodipodi:docname="Functions.svg">
  <defs
     id="defs3837" />
  <sodipodi:namedview
     id="base"
     pagecolor="#ffffff"
     bordercolor="#666666"
     borderopacity="1.0"
     inkscape:pageopacity="0.0"
     inkscape:pageshadow="2"
     inkscape:zoom="1.1976562"
     inkscape:cx="-240.22338"
     inkscape:cy="55.345757"
     inkscape:document-units="mm"
     inkscape:current-layer="layer1"
     showgrid="false"
     fit-margin-top="1"
     fit-margin-left="1"
     fit-margin-right="1"
     fit-margin-bottom="1"
     inkscape:window-width="1920"
     inkscape:window-height="1052"
     inkscape:window-x="0"
     inkscape:window-y="0"
     inkscape:window-maximized="1" />
  <metadata
     id="metadata3840">
    <rdf:RDF>
      <cc:Work
         rdf:about="">
        <dc:format>image/svg+xml</dc:format>
        <dc:type
           rdf:resource="http://purl.org/dc/dcmitype/StillImage" />
        <dc:title></dc:title>
      </cc:Work>
    </rdf:RDF>
  </metadata>
  <g
     inkscape:label="Layer 1"
     inkscape:groupmode="layer"
     id="layer1"
     transform="translate(-128.08085,-142.38565)">
    <flowRoot
       xml:space="preserve"
       id="flowRoot3947"
       style="font-style:normal;font-weight:normal;font-size:40px;line-height:1.25;font-family:sans-serif;letter-spacing:0px;word-spacing:0px;fill:#000000;fill-opacity:1;stroke:none"
       transform="scale(0.26458333)"><flowRegion
         id="flowRegion3949"><rect
           id="rect3951"
           width="96.855835"
           height="157.80821"
           x="229.61513"
           y="442.85889" /></flowRegion><flowPara
         id="flowPara3953"></flowPara></flowRoot>    <g
       style="display:inline"
       id="g7827"
       transform="matrix(0.28222223,0,0,0.28222223,109.62686,-119.81155)">
      <rect
         style="fill:#e9afdd;fill-opacity:1;stroke:#000000;stroke-width:1.66389191;stroke-linecap:butt;stroke-linejoin:round;stroke-miterlimit:4;stroke-dasharray:none;stroke-dashoffset:0;stroke-opacity:1"
         id="rect7558"
         width="52.944717"
         height="26.892555"
         x="69.763405"
         y="933.42041"
         ry="13.446278" />
      <text
         xml:space="preserve"
         style="font-style:normal;font-weight:normal;line-height:0%;font-family:sans-serif;letter-spacing:0px;word-spacing:0px;fill:#000000;fill-opacity:1;stroke:none;stroke-width:1px;stroke-linecap:butt;stroke-linejoin:miter;stroke-opacity:1"
         x="71.612183"
         y="1078.5135"
         id="text7560"
         transform="scale(1.1322024,0.88323431)"><tspan
           sodipodi:role="line"
           id="tspan7562"
           x="71.612183"
           y="1078.5135"
           style="font-size:17.35167503px;line-height:1.25">foo</tspan></text>
    </g>
    <g
       style="display:inline"
       transform="matrix(0.28222223,0,0,0.28222223,38.187875,-92.839172)"
       id="g7564">
      <g
         id="g7566">
        <path
           inkscape:connector-curvature="0"
           style="fill:#afe9dd;fill-opacity:1;stroke:#22280b;stroke-width:1.50481665;stroke-miterlimit:4;stroke-dasharray:none;stroke-dashoffset:0;stroke-opacity:1"
           d="m 337.05892,879.40844 c -1.21711,0 -2.39609,0.17824 -3.49769,0.53443 -0.7344,0.23742 -1.42178,0.56588 -2.08559,0.94156 -0.33189,0.18779 -0.66625,0.39136 -0.97761,0.6107 -0.93902,0.66153 -1.7596,1.45489 -2.47663,2.36671 -0.23397,0.29751 -0.46686,0.59583 -0.67346,0.91614 -0.003,0 0.003,0.0201 0,0.0251 -0.20585,0.32032 -0.4099,0.65149 -0.58658,0.99251 -0.003,0.01 0.003,0.0191 0,0.0251 -0.17591,0.34092 -0.35471,0.68364 -0.49967,1.04335 -0.003,0.01 0.003,0.0191 0,0.0251 -0.14415,0.3597 -0.27961,0.7178 -0.39104,1.09428 -0.002,0.0101 0.002,0.0181 0,0.0251 -0.22366,0.76091 -0.37739,1.54894 -0.45622,2.36662 -7e-4,0.01 6.9e-4,0.0171 0,0.0251 -0.0383,0.40492 -0.0651,0.83104 -0.0651,1.24691 -1e-5,0.01 0,0.0171 0,0.0251 7e-4,0.41556 0.0262,0.81677 0.0651,1.22148 6.9e-4,0.01 -7e-4,0.0171 0,0.0251 0.0398,0.40452 0.0977,0.80442 0.1738,1.19607 0.002,0.01 -0.002,0.0171 0,0.0251 0.0768,0.39146 0.17107,0.76844 0.28242,1.14513 0.002,0.01 -0.002,0.0181 0,0.0251 0.11212,0.37678 0.24621,0.7597 0.39104,1.1197 0.003,0.01 -0.003,0.0181 0,0.0251 0.14556,0.36001 0.32321,0.70203 0.49967,1.04335 0.003,0.01 -0.003,0.0191 0,0.0251 1.98018,3.81418 5.84181,6.38737 10.29756,6.38737 h 5.38775 13.83868 5.38776 c 4.45573,0 8.31738,-2.57319 10.29756,-6.38737 0.003,-0.01 -0.003,-0.0191 0,-0.0251 0.17646,-0.34132 0.35411,-0.68334 0.49967,-1.04335 0.003,-0.01 -0.003,-0.0181 0,-0.0251 0.59065,-1.46826 0.91243,-3.08663 0.91243,-4.78417 -0.004,-2.11975 -0.51111,-4.11761 -1.4121,-5.85304 -0.17668,-0.34101 -0.38073,-0.67228 -0.58658,-0.9925 -0.003,0 0.003,-0.0201 0,-0.0251 -0.2066,-0.32022 -0.43949,-0.61853 -0.67346,-0.91614 -0.003,0 0.003,-0.0211 0,-0.0251 -0.23468,-0.29751 -0.4784,-0.56709 -0.73865,-0.83978 -0.53214,-0.55774 -1.11068,-1.05952 -1.73798,-1.50152 -0.31136,-0.21934 -0.64571,-0.4229 -0.97761,-0.61069 -0.66381,-0.37568 -1.35119,-0.70414 -2.08559,-0.94156 -1.1016,-0.35619 -2.28059,-0.53443 -3.49769,-0.53443 h -5.38776 -13.83868 -5.38775 z"
           id="path7568" />
        <text
           xml:space="preserve"
           style="font-style:normal;font-weight:normal;line-height:0%;font-family:sans-serif;letter-spacing:0px;word-spacing:0px;fill:#000000;fill-opacity:1;stroke:#112b00;stroke-width:0.81047291"
           x="351.92737"
           y="866.44922"
           id="text7570"
           transform="scale(0.9624337,1.0390326)"><tspan
             sodipodi:role="line"
             id="tspan7572"
             x="351.92737"
             y="866.44922"
             style="font-size:26.43625832px;line-height:1.25;font-family:sans-serif;fill:#000000;stroke-width:0.81047291">+</tspan></text>
      </g>
    </g>
  </g>
</svg>
