<?xml version="1.0" encoding="UTF-8" standalone="no"?>
<!-- Created with Inkscape (http://www.inkscape.org/) -->

<svg
   xmlns:dc="http://purl.org/dc/elements/1.1/"
   xmlns:cc="http://creativecommons.org/ns#"
   xmlns:rdf="http://www.w3.org/1999/02/22-rdf-syntax-ns#"
   xmlns:svg="http://www.w3.org/2000/svg"
   xmlns="http://www.w3.org/2000/svg"
   xmlns:sodipodi="http://sodipodi.sourceforge.net/DTD/sodipodi-0.dtd"
   xmlns:inkscape="http://www.inkscape.org/namespaces/inkscape"
   width="107.64738mm"
   height="30.965683mm"
   viewBox="0 0 107.64738 30.965683"
   version="1.1"
   id="svg3843"
   inkscape:version="0.92.3 (2405546, 2018-03-11)"
   sodipodi:docname="ProcessorParams.svg">
  <defs
     id="defs3837" />
  <sodipodi:namedview
     id="base"
     pagecolor="#ffffff"
     bordercolor="#666666"
     borderopacity="1.0"
     inkscape:pageopacity="0.0"
     inkscape:pageshadow="2"
     inkscape:zoom="1.1976562"
     inkscape:cx="15.927074"
     inkscape:cy="50.224756"
     inkscape:document-units="mm"
     inkscape:current-layer="layer1"
     showgrid="false"
     fit-margin-top="1"
     fit-margin-left="1"
     fit-margin-right="1"
     fit-margin-bottom="1"
     inkscape:window-width="1920"
     inkscape:window-height="1052"
     inkscape:window-x="0"
     inkscape:window-y="0"
     inkscape:window-maximized="1" />
  <metadata
     id="metadata3840">
    <rdf:RDF>
      <cc:Work
         rdf:about="">
        <dc:format>image/svg+xml</dc:format>
        <dc:type
           rdf:resource="http://purl.org/dc/dcmitype/StillImage" />
        <dc:title></dc:title>
      </cc:Work>
    </rdf:RDF>
  </metadata>
  <g
     inkscape:label="Layer 1"
     inkscape:groupmode="layer"
     id="layer1"
     transform="translate(-60.307705,-131.15629)">
    <flowRoot
       xml:space="preserve"
       id="flowRoot3947"
       style="font-style:normal;font-weight:normal;font-size:40px;line-height:1.25;font-family:sans-serif;letter-spacing:0px;word-spacing:0px;fill:#000000;fill-opacity:1;stroke:none"
       transform="scale(0.26458333)"><flowRegion
         id="flowRegion3949"><rect
           id="rect3951"
           width="96.855835"
           height="157.80821"
           x="229.61513"
           y="442.85889" /></flowRegion><flowPara
         id="flowPara3953"></flowPara></flowRoot>    <g
       id="g6993"
       transform="matrix(0.28222223,0,0,0.28222223,47.82053,-52.82046)"
       style="display:inline;fill:#de87aa;fill-opacity:1">
      <rect
         style="color:#000000;display:inline;overflow:visible;visibility:visible;fill:#de87aa;fill-opacity:1;fill-rule:nonzero;stroke:#0b280b;stroke-width:2.49583793;stroke-miterlimit:4;stroke-dasharray:none;stroke-dashoffset:0;marker:none;enable-background:accumulate"
         id="rect6995"
         width="39.971428"
         height="77.252121"
         x="687.36249"
         y="-140.57593"
         transform="rotate(90)" />
      <rect
         y="-71.663742"
         x="683.67639"
         height="22.626621"
         width="47.343639"
         id="rect6997"
         style="color:#000000;display:inline;overflow:visible;visibility:visible;fill:#de87aa;fill-opacity:1;fill-rule:nonzero;stroke:#0b280b;stroke-width:2.49583793;stroke-miterlimit:4;stroke-dasharray:none;stroke-dashoffset:0;marker:none;enable-background:accumulate"
         transform="rotate(90)" />
    </g>
    <g
       id="g6999"
       transform="matrix(0.28222223,0,0,0.28222223,47.82053,-52.82046)"
       style="display:inline;fill:#de87aa;fill-opacity:1">
      <rect
         transform="matrix(0,1,1,0,0,0)"
         y="97.915009"
         x="687.36249"
         height="77.252121"
         width="39.971428"
         id="rect7001"
         style="color:#000000;display:inline;overflow:visible;visibility:visible;fill:#de87aa;fill-opacity:1;fill-rule:nonzero;stroke:#0b280b;stroke-width:2.49583793;stroke-miterlimit:4;stroke-dasharray:none;stroke-dashoffset:0;marker:none;enable-background:accumulate" />
      <rect
         transform="matrix(0,1,1,0,0,0)"
         style="color:#000000;display:inline;overflow:visible;visibility:visible;fill:#de87aa;fill-opacity:1;fill-rule:nonzero;stroke:#0b280b;stroke-width:2.49583793;stroke-miterlimit:4;stroke-dasharray:none;stroke-dashoffset:0;marker:none;enable-background:accumulate"
         id="rect7003"
         width="47.343639"
         height="22.626621"
         x="683.67639"
         y="166.82719" />
    </g>
    <path
       inkscape:transform-center-x="-2.063677"
       transform="matrix(0,0.04611835,-0.0856518,0,128.79503,145.26066)"
       d="m 57.12662,378.81889 -47.110379,0 23.555189,-40.79878 z"
       inkscape:randomized="0"
       inkscape:rounded="0"
       inkscape:flatsided="true"
       sodipodi:arg2="1.5707963"
       sodipodi:arg1="0.52359878"
       sodipodi:r2="13.599595"
       sodipodi:r1="27.19919"
       sodipodi:cy="365.2193"
       sodipodi:cx="33.57143"
       sodipodi:sides="3"
       id="path7005"
       style="display:inline;opacity:1;fill:#00ff00;fill-opacity:1;stroke:#000000;stroke-width:7.47155905;stroke-linecap:round;stroke-linejoin:round;stroke-miterlimit:4;stroke-dasharray:none;stroke-dashoffset:0;stroke-opacity:1"
       sodipodi:type="star" />
    <path
       sodipodi:type="star"
       style="display:inline;opacity:1;fill:#ff0000;fill-opacity:1;stroke:#000000;stroke-width:7.47155905;stroke-linecap:round;stroke-linejoin:round;stroke-miterlimit:4;stroke-dasharray:none;stroke-dashoffset:0;stroke-opacity:1"
       id="path7007"
       sodipodi:sides="3"
       sodipodi:cx="33.57143"
       sodipodi:cy="365.2193"
       sodipodi:r1="27.19919"
       sodipodi:r2="13.599595"
       sodipodi:arg1="0.52359878"
       sodipodi:arg2="1.5707963"
       inkscape:flatsided="true"
       inkscape:rounded="0"
       inkscape:randomized="0"
       d="m 57.12662,378.81889 -47.110379,0 23.555189,-40.79878 z"
       transform="matrix(0,0.04611835,-0.0856518,0,95.552054,145.26066)"
       inkscape:transform-center-x="-2.0636753" />
    <path
       style="color:#000000;display:inline;overflow:visible;visibility:visible;fill:#93ac93;fill-opacity:1;fill-rule:nonzero;stroke:#0b280b;stroke-width:0.74457121;stroke-miterlimit:4;stroke-dasharray:none;stroke-dashoffset:0;marker:none;enable-background:accumulate"
       d="m 71.127954,136.45677 v 20.70431 h 2.34832 16.39246 1.96354 v -20.70431 h -1.96354 -16.39246 z"
       id="path7021"
       inkscape:connector-curvature="0" />
    <text
       id="text15401-0"
       y="147.34865"
       x="78.923836"
       style="font-style:normal;font-weight:normal;font-size:3.38666677px;line-height:0%;font-family:sans-serif;letter-spacing:0px;word-spacing:0px;display:inline;fill:#ffff00;fill-opacity:1;stroke:#000000;stroke-width:0.42333335;stroke-linecap:butt;stroke-linejoin:miter;stroke-miterlimit:4;stroke-dasharray:none;stroke-opacity:1"
       xml:space="preserve"><tspan
         style="font-style:italic;font-variant:normal;font-weight:bold;font-stretch:normal;font-size:9.39174652px;line-height:1.25;font-family:'DejaVu Serif';-inkscape-font-specification:'DejaVu Serif Italic';fill:#ffff00;stroke:#000000;stroke-width:0.42333335;stroke-miterlimit:4;stroke-dasharray:none"
         y="147.34865"
         x="78.923836"
         id="tspan15403-7"
         sodipodi:role="line">f</tspan></text>
    <rect
       style="display:inline;fill:#e9afdd;fill-opacity:1;stroke:#000000;stroke-width:0.46958727;stroke-linecap:butt;stroke-linejoin:round;stroke-miterlimit:4;stroke-dasharray:none;stroke-dashoffset:0;stroke-opacity:1"
       id="rect7052"
       width="14.942176"
       height="7.5896769"
       x="74.009018"
       y="153.2975"
       ry="3.7948384" />
    <text
       xml:space="preserve"
       style="font-style:normal;font-weight:normal;font-size:3.38666677px;line-height:0%;font-family:sans-serif;letter-spacing:0px;word-spacing:0px;display:inline;fill:#000000;fill-opacity:1;stroke:none;stroke-width:0.28222224px;stroke-linecap:butt;stroke-linejoin:miter;stroke-opacity:1"
       x="68.188042"
       y="179.68594"
       id="text7054"
       transform="scale(1.1322024,0.8832343)"><tspan
         sodipodi:role="line"
         id="tspan7056"
         x="68.188042"
         y="179.68594"
         style="font-size:4.89702845px;line-height:1.25;stroke-width:0.28222224px">foo</tspan></text>
    <g
       style="display:inline;fill:#00aa88;fill-opacity:1"
       transform="matrix(0.28222223,0,0,0.28222223,113.13481,-52.82046)"
       id="g7058">
      <rect
         transform="rotate(90)"
         y="-140.57593"
         x="687.36249"
         height="77.252121"
         width="39.971428"
         id="rect7060"
         style="color:#000000;display:inline;overflow:visible;visibility:visible;fill:#00aa88;fill-opacity:1;fill-rule:nonzero;stroke:#0b280b;stroke-width:2.49583793;stroke-miterlimit:4;stroke-dasharray:none;stroke-dashoffset:0;marker:none;enable-background:accumulate" />
      <rect
         transform="rotate(90)"
         style="color:#000000;display:inline;overflow:visible;visibility:visible;fill:#00aa88;fill-opacity:1;fill-rule:nonzero;stroke:#0b280b;stroke-width:2.49583793;stroke-miterlimit:4;stroke-dasharray:none;stroke-dashoffset:0;marker:none;enable-background:accumulate"
         id="rect7062"
         width="47.343639"
         height="22.626621"
         x="683.67639"
         y="-71.663742" />
    </g>
    <g
       style="display:inline;fill:#00aa88;fill-opacity:1"
       transform="matrix(0.28222223,0,0,0.28222223,113.13481,-52.82046)"
       id="g7064">
      <rect
         style="color:#000000;display:inline;overflow:visible;visibility:visible;fill:#00aa88;fill-opacity:1;fill-rule:nonzero;stroke:#0b280b;stroke-width:2.49583793;stroke-miterlimit:4;stroke-dasharray:none;stroke-dashoffset:0;marker:none;enable-background:accumulate"
         id="rect7066"
         width="39.971428"
         height="77.252121"
         x="687.36249"
         y="97.915009"
         transform="matrix(0,1,1,0,0,0)" />
      <rect
         y="166.82719"
         x="683.67639"
         height="22.626621"
         width="47.343639"
         id="rect7068"
         style="color:#000000;display:inline;overflow:visible;visibility:visible;fill:#00aa88;fill-opacity:1;fill-rule:nonzero;stroke:#0b280b;stroke-width:2.49583793;stroke-miterlimit:4;stroke-dasharray:none;stroke-dashoffset:0;marker:none;enable-background:accumulate"
         transform="matrix(0,1,1,0,0,0)" />
    </g>
    <path
       sodipodi:type="star"
       style="display:inline;opacity:1;fill:#00ff00;fill-opacity:1;stroke:#000000;stroke-width:7.47155905;stroke-linecap:round;stroke-linejoin:round;stroke-miterlimit:4;stroke-dasharray:none;stroke-dashoffset:0;stroke-opacity:1"
       id="path7070"
       sodipodi:sides="3"
       sodipodi:cx="33.57143"
       sodipodi:cy="365.2193"
       sodipodi:r1="27.19919"
       sodipodi:r2="13.599595"
       sodipodi:arg1="0.52359878"
       sodipodi:arg2="1.5707963"
       inkscape:flatsided="true"
       inkscape:rounded="0"
       inkscape:randomized="0"
       d="m 57.12662,378.81889 -47.110379,0 23.555189,-40.79878 z"
       transform="matrix(0,0.04611835,-0.0856518,0,194.10931,145.26066)"
       inkscape:transform-center-x="-2.063677" />
    <path
       inkscape:transform-center-x="-2.0636753"
       transform="matrix(0,0.04611835,-0.0856518,0,160.86634,145.26066)"
       d="m 57.12662,378.81889 -47.110379,0 23.555189,-40.79878 z"
       inkscape:randomized="0"
       inkscape:rounded="0"
       inkscape:flatsided="true"
       sodipodi:arg2="1.5707963"
       sodipodi:arg1="0.52359878"
       sodipodi:r2="13.599595"
       sodipodi:r1="27.19919"
       sodipodi:cy="365.2193"
       sodipodi:cx="33.57143"
       sodipodi:sides="3"
       id="path7072"
       style="display:inline;opacity:1;fill:#ff0000;fill-opacity:1;stroke:#000000;stroke-width:7.47155905;stroke-linecap:round;stroke-linejoin:round;stroke-miterlimit:4;stroke-dasharray:none;stroke-dashoffset:0;stroke-opacity:1"
       sodipodi:type="star" />
    <path
       inkscape:connector-curvature="0"
       id="path7074"
       d="m 136.44224,136.45677 v 20.70431 h 2.34832 16.39246 1.96353 v -20.70431 h -1.96353 -16.39246 z"
       style="color:#000000;display:inline;overflow:visible;visibility:visible;fill:#93ac93;fill-opacity:1;fill-rule:nonzero;stroke:#0b280b;stroke-width:0.74457121;stroke-miterlimit:4;stroke-dasharray:none;stroke-dashoffset:0;marker:none;enable-background:accumulate" />
    <text
       transform="scale(1.001177,0.99882439)"
       id="text38390"
       y="151.948"
       x="141.84181"
       style="font-style:normal;font-weight:normal;font-size:3.38666677px;line-height:0%;font-family:sans-serif;letter-spacing:0px;word-spacing:0px;display:inline;fill:#ffff00;fill-opacity:1;stroke:#000000;stroke-width:0.42333335;stroke-linecap:butt;stroke-linejoin:miter;stroke-miterlimit:4;stroke-dasharray:none;stroke-opacity:1"
       xml:space="preserve"><tspan
         style="font-style:normal;font-variant:normal;font-weight:bold;font-stretch:normal;font-size:13.62485218px;line-height:1.25;font-family:serif;-inkscape-font-specification:'Serif Bold';fill:#ffff00;stroke:#000000;stroke-width:0.42333335;stroke-miterlimit:4;stroke-dasharray:none"
         y="151.948"
         x="141.84181"
         id="tspan38392"
         sodipodi:role="line">Σ</tspan></text>
    <g
       style="display:inline"
       id="g7224"
       transform="matrix(0.28222223,0,0,0.28222223,49.531054,-116.81133)">
      <g
         id="g38394"
         transform="matrix(0.81047296,0,0,0.81047296,-20.78011,573.30048)">
        <g
           transform="translate(161.62441,142.43151)"
           id="g38396">
          <rect
             y="336.09238"
             x="278.09991"
             height="22.461578"
             width="23.576544"
             id="rect38398"
             style="fill:#eeffaa;fill-opacity:1;stroke:#22280b;stroke-width:2;stroke-miterlimit:4;stroke-dasharray:none;stroke-dashoffset:0;stroke-opacity:1"
             ry="5.0507627" />
          <text
             xml:space="preserve"
             style="font-style:normal;font-weight:normal;line-height:0%;font-family:sans-serif;letter-spacing:0px;word-spacing:0px;fill:#000000;fill-opacity:1;stroke:none"
             x="225.63997"
             y="442.64838"
             id="text38400"
             transform="scale(1.2476837,0.80148515)"><tspan
               style="font-style:normal;font-variant:normal;font-weight:normal;font-stretch:normal;font-size:20.95247459px;line-height:1.25;font-family:sans-serif;-inkscape-font-specification:sans-serif"
               sodipodi:role="line"
               id="tspan38402"
               x="225.63997"
               y="442.64838">3</tspan></text>
        </g>
      </g>
    </g>
    <g
       style="display:inline"
       id="g7238"
       transform="matrix(0.28222223,0,0,0.28222223,48.19553,-115.81926)">
      <g
         id="g7233">
        <path
           id="path7231"
           d="m 337.05892,879.40844 c -1.21711,0 -2.39609,0.17824 -3.49769,0.53443 -0.7344,0.23742 -1.42178,0.56588 -2.08559,0.94156 -0.33189,0.18779 -0.66625,0.39136 -0.97761,0.6107 -0.93902,0.66153 -1.7596,1.45489 -2.47663,2.36671 -0.23397,0.29751 -0.46686,0.59583 -0.67346,0.91614 -0.003,0 0.003,0.0201 0,0.0251 -0.20585,0.32032 -0.4099,0.65149 -0.58658,0.99251 -0.003,0.01 0.003,0.0191 0,0.0251 -0.17591,0.34092 -0.35471,0.68364 -0.49967,1.04335 -0.003,0.01 0.003,0.0191 0,0.0251 -0.14415,0.3597 -0.27961,0.7178 -0.39104,1.09428 -0.002,0.0101 0.002,0.0181 0,0.0251 -0.22366,0.76091 -0.37739,1.54894 -0.45622,2.36662 -7e-4,0.01 6.9e-4,0.0171 0,0.0251 -0.0383,0.40492 -0.0651,0.83104 -0.0651,1.24691 -1e-5,0.01 0,0.0171 0,0.0251 7e-4,0.41556 0.0262,0.81677 0.0651,1.22148 6.9e-4,0.01 -7e-4,0.0171 0,0.0251 0.0398,0.40452 0.0977,0.80442 0.1738,1.19607 0.002,0.01 -0.002,0.0171 0,0.0251 0.0768,0.39146 0.17107,0.76844 0.28242,1.14513 0.002,0.01 -0.002,0.0181 0,0.0251 0.11212,0.37678 0.24621,0.7597 0.39104,1.1197 0.003,0.01 -0.003,0.0181 0,0.0251 0.14556,0.36001 0.32321,0.70203 0.49967,1.04335 0.003,0.01 -0.003,0.0191 0,0.0251 1.98018,3.81418 5.84181,6.38737 10.29756,6.38737 h 5.38775 13.83868 5.38776 c 4.45573,0 8.31738,-2.57319 10.29756,-6.38737 0.003,-0.01 -0.003,-0.0191 0,-0.0251 0.17646,-0.34132 0.35411,-0.68334 0.49967,-1.04335 0.003,-0.01 -0.003,-0.0181 0,-0.0251 0.59065,-1.46826 0.91243,-3.08663 0.91243,-4.78417 -0.004,-2.11975 -0.51111,-4.11761 -1.4121,-5.85304 -0.17668,-0.34101 -0.38073,-0.67228 -0.58658,-0.9925 -0.003,0 0.003,-0.0201 0,-0.0251 -0.2066,-0.32022 -0.43949,-0.61853 -0.67346,-0.91614 -0.003,0 0.003,-0.0211 0,-0.0251 -0.23468,-0.29751 -0.4784,-0.56709 -0.73865,-0.83978 -0.53214,-0.55774 -1.11068,-1.05952 -1.73798,-1.50152 -0.31136,-0.21934 -0.64571,-0.4229 -0.97761,-0.61069 -0.66381,-0.37568 -1.35119,-0.70414 -2.08559,-0.94156 -1.1016,-0.35619 -2.28059,-0.53443 -3.49769,-0.53443 h -5.38776 -13.83868 -5.38775 z"
           style="fill:#afe9dd;fill-opacity:1;stroke:#22280b;stroke-width:1.50481665;stroke-miterlimit:4;stroke-dasharray:none;stroke-dashoffset:0;stroke-opacity:1"
           inkscape:connector-curvature="0" />
        <text
           transform="scale(0.9624337,1.0390326)"
           id="text38386"
           y="866.44922"
           x="351.92737"
           style="font-style:normal;font-weight:normal;line-height:0%;font-family:sans-serif;letter-spacing:0px;word-spacing:0px;fill:#000000;fill-opacity:1;stroke:#112b00;stroke-width:0.81047291"
           xml:space="preserve"><tspan
             style="font-size:26.43625832px;line-height:1.25;font-family:sans-serif;fill:#000000;stroke-width:0.81047291"
             y="866.44922"
             x="351.92737"
             id="tspan38388"
             sodipodi:role="line">+</tspan></text>
      </g>
    </g>
  </g>
</svg>
